<svg xmlns="http://www.w3.org/2000/svg" xmlns:xlink="http://www.w3.org/1999/xlink" width="500" zoomAndPan="magnify" viewBox="0 0 375 374.999991" height="500" preserveAspectRatio="xMidYMid meet" version="1.0"><defs><clipPath id="3884fb4ebb"><path d="M 65.296875 37 L 309.796875 37 L 309.796875 339.34375 L 65.296875 339.34375 Z M 65.296875 37 " clip-rule="nonzero"/></clipPath><clipPath id="80e2a5fa3a"><path d="M 65.296875 41 L 286 41 L 286 339.34375 L 65.296875 339.34375 Z M 65.296875 41 " clip-rule="nonzero"/></clipPath></defs><g clip-path="url(#3884fb4ebb)"><path fill="#ffffff" d="M -291.773438 490.226562 L -289.140625 490.222656 C -286.753906 490.214844 -284.363281 490.214844 -281.976562 490.21875 C -279.390625 490.21875 -276.808594 490.214844 -274.222656 490.210938 C -269.167969 490.203125 -264.117188 490.203125 -259.0625 490.203125 C -254.953125 490.203125 -250.84375 490.203125 -246.734375 490.199219 L -241.390625 490.199219 C -230.242188 490.191406 -219.09375 490.191406 -207.945312 490.195312 C -197.753906 490.199219 -187.5625 490.191406 -177.371094 490.179688 C -166.894531 490.171875 -156.417969 490.164062 -145.941406 490.167969 C -140.0625 490.167969 -134.1875 490.167969 -128.308594 490.160156 C -123.308594 490.152344 -118.304688 490.152344 -113.304688 490.160156 C -110.753906 490.164062 -108.203125 490.160156 -105.65625 490.15625 C -103.316406 490.148438 -100.980469 490.152344 -98.640625 490.160156 C -97.800781 490.160156 -96.957031 490.160156 -96.117188 490.15625 C -91.171875 490.128906 -86.214844 490.210938 -81.574219 492.113281 C -79.554688 493.800781 -78.15625 495.570312 -76.914062 497.878906 C -76.105469 500.484375 -76.203125 503.007812 -76.207031 505.71875 L -76.195312 507.601562 C -76.183594 509.683594 -76.179688 511.765625 -76.179688 513.851562 C -76.171875 515.34375 -76.164062 516.835938 -76.15625 518.328125 C -76.140625 521.96875 -76.128906 525.609375 -76.121094 529.25 C -76.113281 533.507812 -76.09375 537.761719 -76.078125 542.015625 C -76.050781 549.625 -76.027344 557.234375 -76.003906 564.84375 C -75.984375 572.191406 -75.960938 579.539062 -75.933594 586.886719 C -75.898438 596.195312 -75.863281 605.503906 -75.835938 614.8125 C -75.824219 617.757812 -75.816406 620.707031 -75.804688 623.65625 C -75.789062 627.273438 -75.78125 630.886719 -75.769531 634.503906 C -75.765625 636.339844 -75.761719 638.179688 -75.753906 640.015625 C -75.722656 647.878906 -75.800781 655.734375 -76.046875 663.59375 L -76.117188 665.882812 L -76.191406 667.988281 L -76.253906 669.863281 C -76.371094 671.332031 -76.371094 671.332031 -76.949219 672.488281 C -77.128906 674.136719 -77.246094 675.785156 -77.367188 677.441406 L -77.527344 678.847656 L -78.105469 679.425781 L -78.359375 681.375 C -78.683594 683.472656 -78.683594 683.472656 -79.839844 685.207031 C -80.078125 686.019531 -80.292969 686.839844 -80.492188 687.664062 C -81.628906 691.625 -83.648438 695.09375 -85.648438 698.671875 C -86.121094 699.527344 -86.585938 700.386719 -87.042969 701.25 C -88.453125 703.902344 -90.027344 706.054688 -91.980469 708.332031 L -92.558594 710.066406 L -93.714844 710.066406 L -94.15625 711.074219 C -94.96875 712.554688 -95.902344 713.558594 -97.09375 714.753906 L -98.410156 716.074219 L -99.785156 717.4375 L -101.160156 718.824219 L -102.476562 720.136719 L -103.683594 721.339844 L -104.699219 722.207031 L -105.855469 722.207031 L -105.855469 723.363281 C -106.921875 724.265625 -106.921875 724.265625 -108.457031 725.347656 L -110.207031 726.59375 C -112.832031 728.421875 -115.476562 730.222656 -118.121094 732.027344 C -120.648438 733.757812 -123.097656 735.550781 -125.460938 737.507812 C -126.777344 738.476562 -128.171875 739.246094 -129.597656 740.042969 C -131.648438 741.257812 -133.554688 742.675781 -135.484375 744.066406 C -138.703125 746.367188 -141.949219 748.570312 -145.308594 750.660156 C -147.628906 752.160156 -149.859375 753.78125 -152.085938 755.417969 C -153.980469 756.796875 -155.894531 758 -157.945312 759.140625 C -160.183594 760.453125 -162.292969 761.957031 -164.425781 763.433594 L -165.894531 764.445312 C -168.828125 766.460938 -171.75 768.492188 -174.648438 770.558594 C -175.96875 771.457031 -177.332031 772.261719 -178.699219 773.082031 C -179.496094 773.617188 -180.292969 774.160156 -181.085938 774.707031 C -184.039062 776.6875 -187.105469 778.382812 -190.261719 780.019531 L -191.382812 780.640625 C -192.757812 781.34375 -194.027344 781.742188 -195.570312 781.808594 C -200.207031 781.496094 -203.25 779.078125 -207.027344 776.550781 C -208.546875 775.519531 -210.066406 774.484375 -211.582031 773.441406 L -212.828125 772.585938 C -214.839844 771.199219 -216.832031 769.804688 -218.769531 768.3125 C -220.945312 766.640625 -223.25 765.210938 -225.582031 763.777344 C -227.328125 762.632812 -228.984375 761.402344 -230.648438 760.140625 C -232.75 758.554688 -234.882812 757.023438 -237.019531 755.484375 L -238.410156 754.480469 C -243.335938 750.933594 -248.308594 747.480469 -253.371094 744.128906 C -256.398438 742.117188 -259.359375 740.027344 -262.300781 737.894531 C -264.085938 736.597656 -264.085938 736.597656 -265.996094 735.503906 L -265.996094 734.347656 L -267.132812 733.984375 C -269.589844 732.871094 -271.636719 731.316406 -273.800781 729.722656 L -275.207031 728.691406 C -276.140625 728.003906 -277.074219 727.316406 -278.003906 726.625 C -279.097656 725.820312 -280.195312 725.027344 -281.300781 724.238281 C -292.421875 716.085938 -301.226562 705.804688 -307.042969 693.300781 C -307.464844 692.535156 -307.898438 691.777344 -308.34375 691.023438 C -309.949219 688.214844 -310.800781 685.421875 -311.667969 682.316406 L -312.105469 680.976562 C -313.09375 677.921875 -313.648438 675.074219 -313.859375 671.871094 L -313.980469 670.753906 L -314.558594 670.175781 C -314.628906 668.828125 -314.667969 667.484375 -314.675781 666.136719 L -314.691406 664.835938 C -314.710938 663.386719 -314.726562 661.9375 -314.738281 660.488281 L -314.773438 657.378906 C -314.804688 654.535156 -314.835938 651.6875 -314.859375 648.84375 C -314.878906 647.039062 -314.894531 645.238281 -314.914062 643.433594 C -315.1875 616.132812 -315.246094 588.828125 -315.242188 561.527344 C -315.242188 556.3125 -315.25 551.097656 -315.257812 545.886719 C -315.265625 540.761719 -315.269531 535.632812 -315.269531 530.507812 C -315.269531 527.488281 -315.269531 524.472656 -315.277344 521.453125 C -315.28125 518.660156 -315.28125 515.871094 -315.277344 513.078125 C -315.277344 512.058594 -315.277344 511.042969 -315.28125 510.023438 C -315.289062 508.632812 -315.285156 507.246094 -315.28125 505.855469 L -315.289062 504.644531 C -315.265625 501.285156 -314.578125 498.117188 -312.96875 495.148438 C -311.667969 493.269531 -311.667969 493.269531 -310.257812 492.222656 C -304.28125 490.226562 -298.011719 490.210938 -291.773438 490.226562 M -262.148438 541.386719 C -263.179688 542.351562 -263.179688 542.351562 -263.546875 543.65625 C -264.144531 546.96875 -264.433594 550.3125 -264.414062 553.679688 L -264.417969 555.257812 C -264.425781 556.984375 -264.421875 558.710938 -264.421875 560.441406 L -264.429688 564.175781 C -264.4375 567.546875 -264.4375 570.917969 -264.4375 574.289062 C -264.4375 577.105469 -264.4375 579.921875 -264.441406 582.738281 C -264.445312 589.386719 -264.449219 596.035156 -264.445312 602.679688 C -264.441406 609.53125 -264.449219 616.382812 -264.460938 623.234375 C -264.46875 629.125 -264.472656 635.015625 -264.472656 640.90625 C -264.472656 644.421875 -264.472656 647.933594 -264.480469 651.449219 C -264.488281 654.753906 -264.488281 658.058594 -264.480469 661.363281 C -264.476562 662.574219 -264.480469 663.785156 -264.484375 664.992188 C -264.492188 666.648438 -264.484375 668.308594 -264.480469 669.960938 L -264.492188 671.402344 C -264.453125 675.34375 -263.457031 678.675781 -261.734375 682.207031 C -260.585938 683.75 -259.511719 684.726562 -257.902344 685.785156 C -253.070312 687.488281 -247.9375 687.398438 -242.871094 686.941406 C -240.707031 686.472656 -238.914062 685.890625 -237.089844 684.628906 C -235.863281 683.214844 -235.863281 683.214844 -235.355469 681.738281 L -234.777344 680.582031 C -234.726562 679.488281 -234.710938 678.398438 -234.714844 677.304688 L -234.71875 675.191406 L -234.730469 672.863281 L -234.734375 670.417969 C -234.738281 668.660156 -234.746094 666.902344 -234.75 665.148438 C -234.761719 662.367188 -234.769531 659.589844 -234.773438 656.808594 C -234.785156 648.90625 -234.808594 641 -234.832031 633.097656 C -234.847656 628.734375 -234.859375 624.371094 -234.863281 620.007812 C -234.867188 617.246094 -234.875 614.484375 -234.890625 611.722656 C -234.894531 610 -234.898438 608.28125 -234.898438 606.558594 C -234.898438 605.761719 -234.902344 604.964844 -234.90625 604.171875 C -234.914062 603.082031 -234.914062 601.992188 -234.914062 600.902344 L -234.917969 599.054688 C -234.765625 597.171875 -234.285156 595.621094 -233.621094 593.863281 C -232.582031 594.03125 -232.582031 594.03125 -231.308594 594.441406 C -230.382812 595.285156 -230.382812 595.285156 -229.464844 596.390625 L -228.394531 597.671875 L -227.261719 599.066406 L -226.128906 600.441406 C -225.28125 601.472656 -224.433594 602.507812 -223.59375 603.542969 C -221.742188 605.816406 -219.875 608.078125 -218.011719 610.339844 L -213.113281 616.285156 C -212.382812 617.171875 -211.65625 618.054688 -210.929688 618.9375 L -209.730469 620.398438 C -208.761719 621.613281 -208.761719 621.613281 -207.605469 623.347656 L -206.449219 623.347656 L -206.003906 624.332031 C -205.199219 625.835938 -204.242188 627.050781 -203.160156 628.367188 C -201.605469 630.273438 -200.074219 632.203125 -198.574219 634.148438 C -197.109375 636.042969 -195.585938 637.863281 -194.007812 639.664062 C -192.730469 641.195312 -191.582031 642.816406 -190.433594 644.445312 L -189.683594 645.316406 L -188.527344 645.316406 L -188.136719 646.53125 C -187.191406 648.597656 -185.855469 650.164062 -184.371094 651.855469 C -184.089844 652.1875 -183.804688 652.515625 -183.511719 652.855469 C -181.632812 655.03125 -179.730469 657.191406 -177.796875 659.316406 C -176.964844 660.347656 -176.964844 660.347656 -176.21875 661.636719 C -174.863281 663.835938 -173.230469 665.765625 -171.582031 667.753906 C -169.652344 670.089844 -167.742188 672.429688 -165.945312 674.871094 C -162.773438 679.132812 -159.015625 683.4375 -154.238281 685.890625 C -150.371094 687.394531 -146.386719 687.519531 -142.277344 687.519531 L -140.644531 687.519531 C -137.457031 687.359375 -134.828125 686.488281 -132.023438 684.96875 C -129.914062 683.488281 -128.5 681.664062 -127.246094 679.425781 C -124.367188 672.976562 -125.429688 664.738281 -125.4375 657.800781 C -125.4375 656.617188 -125.4375 655.433594 -125.433594 654.25 C -125.433594 651.054688 -125.433594 647.859375 -125.433594 644.664062 C -125.4375 641.316406 -125.433594 637.964844 -125.433594 634.609375 C -125.433594 628.984375 -125.433594 623.359375 -125.4375 617.734375 C -125.4375 611.238281 -125.4375 604.742188 -125.4375 598.246094 C -125.433594 592.660156 -125.433594 587.070312 -125.433594 581.484375 C -125.433594 578.148438 -125.433594 574.816406 -125.433594 571.484375 C -125.433594 568.351562 -125.433594 565.21875 -125.4375 562.085938 C -125.4375 560.941406 -125.4375 559.792969 -125.433594 558.644531 C -125.433594 557.074219 -125.4375 555.503906 -125.4375 553.933594 L -125.433594 552.570312 C -125.410156 548.03125 -125.410156 548.03125 -126.089844 543.566406 C -127.632812 541.878906 -128.9375 540.949219 -131.019531 540.035156 C -133.8125 539.316406 -136.480469 539.328125 -139.351562 539.339844 L -141.039062 539.308594 C -143.480469 539.308594 -145.722656 539.347656 -148.023438 540.214844 C -149.960938 541.351562 -150.859375 542.289062 -152.105469 544.144531 C -152.457031 545.730469 -152.457031 545.730469 -152.425781 547.441406 L -152.460938 549.4375 L -152.464844 551.613281 L -152.496094 553.914062 C -152.523438 556 -152.542969 558.082031 -152.554688 560.167969 C -152.570312 562.359375 -152.601562 564.550781 -152.628906 566.742188 C -152.679688 570.90625 -152.71875 575.070312 -152.753906 579.230469 C -152.808594 585.300781 -152.875 591.367188 -152.945312 597.4375 L -152.976562 600.148438 L -152.992188 601.492188 C -153.019531 604.085938 -153.046875 606.683594 -153.070312 609.277344 C -153.199219 623.832031 -153.199219 623.832031 -153.457031 630.789062 L -153.492188 632.21875 C -153.550781 633.496094 -153.550781 633.496094 -153.839844 635.488281 L -155.574219 636.644531 C -158.308594 634.507812 -160.402344 632.308594 -162.359375 629.441406 L -163.089844 628.550781 L -164.246094 628.550781 L -164.714844 627.25 C -165.375 625.722656 -166.035156 624.585938 -167.136719 623.347656 L -168.292969 623.347656 L -168.738281 622.359375 C -169.542969 620.855469 -170.5 619.644531 -171.582031 618.324219 C -173.066406 616.492188 -174.546875 614.660156 -175.988281 612.796875 C -177.75 610.523438 -179.523438 608.261719 -181.300781 606.003906 C -183.078125 603.746094 -184.851562 601.480469 -186.613281 599.210938 C -188.4375 596.859375 -190.300781 594.539062 -192.171875 592.222656 C -193.152344 590.972656 -193.152344 590.972656 -194.308594 589.238281 L -195.464844 589.238281 C -195.601562 588.828125 -195.738281 588.417969 -195.875 587.996094 C -196.761719 586.039062 -197.894531 584.683594 -199.296875 583.058594 C -199.820312 582.441406 -200.347656 581.824219 -200.875 581.203125 L -201.664062 580.28125 C -204.902344 576.460938 -207.941406 572.46875 -211.035156 568.527344 C -214.574219 564.019531 -218.167969 559.554688 -221.8125 555.128906 C -222.832031 553.871094 -223.832031 552.597656 -224.816406 551.3125 C -228.742188 546.105469 -228.742188 546.105469 -233.621094 541.832031 C -239.527344 539.597656 -245.800781 539.382812 -252.050781 539.265625 L -253.757812 539.207031 C -256.929688 539.1875 -259.546875 539.4375 -262.148438 541.386719 M -190.804688 37.019531 L -189.476562 37.019531 C -171.476562 37.03125 -171.476562 37.03125 -165.980469 38.863281 C -164.191406 39.039062 -162.40625 39.15625 -160.613281 39.277344 C -159.042969 39.441406 -159.042969 39.441406 -157.886719 40.019531 L -155.683594 40.199219 C -152.691406 40.5 -149.988281 41.382812 -147.136719 42.308594 C -145.203125 42.898438 -143.277344 43.351562 -141.300781 43.777344 C -138.554688 44.390625 -136.058594 45.183594 -133.472656 46.289062 C -131.878906 46.953125 -130.265625 47.539062 -128.640625 48.121094 C -123.703125 49.902344 -119.070312 52.09375 -114.414062 54.515625 C -112.949219 55.265625 -111.460938 55.964844 -109.976562 56.675781 C -102.824219 60.253906 -96 64.628906 -89.667969 69.503906 L -88.332031 70.523438 C -85.523438 72.691406 -82.753906 74.910156 -79.992188 77.136719 C -79.132812 77.820312 -78.253906 78.476562 -77.359375 79.105469 L -76.371094 79.910156 L -76.371094 81.066406 L -75.332031 81.535156 C -74.054688 82.222656 -73.210938 82.917969 -72.1875 83.9375 L -71.183594 84.9375 L -70.15625 85.980469 L -69.101562 87.019531 L -68.105469 88.019531 L -67.195312 88.933594 L -66.542969 89.738281 L -66.542969 90.894531 L -65.386719 90.894531 L -65.386719 92.050781 L -64.230469 92.050781 C -63.160156 93.308594 -62.121094 94.597656 -61.125 95.917969 L -59.449219 98.089844 L -58.628906 99.160156 C -57.984375 99.996094 -57.328125 100.824219 -56.667969 101.648438 C -51.476562 108.140625 -46.714844 114.757812 -42.839844 122.113281 C -42.324219 123.054688 -41.808594 123.992188 -41.285156 124.929688 L -40.578125 126.207031 C -40.082031 127.085938 -39.550781 127.945312 -39.011719 128.796875 C -38.121094 130.371094 -37.558594 131.957031 -36.953125 133.65625 C -36.363281 135.121094 -35.546875 136.414062 -34.734375 137.761719 C -33.828125 139.546875 -33.355469 141.4375 -32.84375 143.367188 C -32.453125 144.800781 -32.453125 144.800781 -31.277344 146.394531 C -30.984375 147.457031 -30.722656 148.53125 -30.484375 149.609375 C -29.949219 151.863281 -29.347656 153.898438 -28.386719 156.003906 C -26.886719 159.527344 -26.460938 163.230469 -25.90625 166.996094 C -25.539062 169.429688 -24.964844 171.765625 -24.339844 174.144531 C -22.085938 183.359375 -21.917969 192.679688 -21.917969 202.109375 L -21.917969 203.566406 C -21.917969 204.953125 -21.921875 206.339844 -21.929688 207.726562 L -21.933594 208.992188 C -21.953125 211.132812 -22.128906 213.105469 -22.605469 215.191406 C -22.675781 216.453125 -22.738281 217.71875 -22.785156 218.984375 C -23.039062 223.183594 -23.757812 227.1875 -24.652344 231.296875 C -25.160156 233.644531 -25.578125 235.945312 -25.820312 238.339844 L -26.074219 240.628906 L -26.652344 241.207031 C -26.84375 242.054688 -27.007812 242.910156 -27.164062 243.765625 C -27.757812 246.851562 -28.566406 249.832031 -29.472656 252.839844 L -29.898438 254.316406 C -30.730469 257.09375 -31.738281 259.601562 -33.085938 262.164062 C -33.71875 263.429688 -34.105469 264.699219 -34.457031 266.066406 C -35.226562 268.777344 -36.320312 271.097656 -37.636719 273.582031 C -38.191406 274.714844 -38.746094 275.84375 -39.300781 276.976562 C -40.65625 279.691406 -42.128906 282.289062 -43.722656 284.871094 C -44.574219 286.296875 -45.332031 287.75 -46.09375 289.226562 C -49.90625 296.289062 -54.980469 302.765625 -60.183594 308.847656 L -61.023438 309.835938 C -62.769531 311.882812 -64.519531 313.921875 -66.277344 315.957031 C -66.863281 316.640625 -67.449219 317.328125 -68.03125 318.019531 C -69.488281 319.746094 -70.90625 321.386719 -72.648438 322.832031 C -74.105469 324.058594 -75.527344 325.324219 -76.917969 326.628906 C -86.933594 336.078125 -98.296875 344.054688 -110.480469 350.472656 C -111.1875 350.855469 -111.894531 351.242188 -112.597656 351.628906 L -114.851562 352.855469 L -115.882812 353.425781 C -118.34375 354.753906 -120.859375 355.820312 -123.464844 356.832031 C -124.851562 357.378906 -126.226562 357.945312 -127.601562 358.523438 C -134.484375 361.390625 -141.421875 363.625 -148.636719 365.503906 L -150.238281 365.929688 C -154.855469 367.132812 -159.496094 368.054688 -164.210938 368.792969 C -164.617188 368.855469 -165.027344 368.917969 -165.449219 368.984375 C -173.300781 370.164062 -181.097656 370.398438 -189.035156 370.382812 L -190.726562 370.382812 C -196.144531 370.367188 -201.457031 370.335938 -206.785156 369.246094 C -208.3125 368.945312 -209.8125 368.800781 -211.363281 368.683594 C -216.523438 368.253906 -221.519531 367.300781 -226.527344 365.992188 C -227.917969 365.632812 -229.3125 365.289062 -230.707031 364.957031 C -234.632812 364.027344 -238.414062 363.015625 -242.132812 361.414062 C -243.496094 360.859375 -244.847656 360.46875 -246.269531 360.082031 C -249.191406 359.246094 -251.765625 357.933594 -254.453125 356.535156 C -256.503906 355.507812 -258.59375 354.6875 -260.730469 353.863281 C -262.199219 353.257812 -263.492188 352.464844 -264.839844 351.628906 L -266.609375 350.90625 C -271.40625 348.90625 -275.789062 345.960938 -279.988281 342.9375 C -281.273438 342.035156 -282.574219 341.15625 -283.894531 340.300781 L -285.097656 339.511719 C -285.894531 338.996094 -286.691406 338.480469 -287.488281 337.96875 C -288.4375 337.351562 -289.363281 336.6875 -290.277344 336.019531 L -290.277344 334.863281 L -291.226562 334.453125 C -297.570312 330.984375 -302.757812 324.816406 -307.839844 319.757812 L -308.742188 318.867188 C -312.492188 315.144531 -315.984375 311.328125 -319.183594 307.113281 L -319.960938 306.105469 C -324.285156 300.476562 -328.332031 294.746094 -331.902344 288.613281 L -332.917969 286.890625 C -333.933594 285.15625 -334.941406 283.414062 -335.949219 281.675781 L -336.765625 280.28125 C -338.269531 277.667969 -339.480469 275.042969 -340.558594 272.230469 C -341.199219 270.566406 -341.898438 268.933594 -342.597656 267.292969 C -344.039062 263.855469 -345.21875 260.363281 -346.355469 256.816406 C -346.65625 255.910156 -346.957031 255.007812 -347.257812 254.105469 L -347.652344 252.925781 C -347.925781 252.101562 -348.207031 251.285156 -348.5 250.46875 C -349.746094 246.917969 -350.5625 243.335938 -351.304688 239.652344 L -351.6875 237.777344 C -354.207031 225.214844 -355.136719 212.566406 -355.136719 199.761719 L -355.136719 197.453125 C -355.117188 194.046875 -354.957031 190.8125 -354.449219 187.441406 C -354.386719 186.3125 -354.328125 185.1875 -354.28125 184.058594 C -354.066406 178.695312 -353.238281 173.609375 -352.136719 168.363281 L -351.488281 164.929688 C -351.335938 164.144531 -351.175781 163.359375 -350.980469 162.582031 L -350.402344 162.003906 C -350.132812 160.667969 -349.882812 159.332031 -349.644531 157.992188 C -349.042969 154.816406 -348.253906 151.949219 -346.957031 148.976562 C -346.265625 147.332031 -345.714844 145.667969 -345.164062 143.972656 C -344.332031 141.429688 -343.390625 139.011719 -342.308594 136.566406 L -341.621094 134.542969 C -340.304688 130.964844 -338.351562 127.660156 -336.523438 124.324219 C -336.011719 123.378906 -335.503906 122.429688 -335 121.476562 C -333.1875 118.078125 -331.207031 114.871094 -329.011719 111.707031 L -327.777344 109.894531 C -325.542969 106.621094 -323.265625 103.390625 -320.792969 100.289062 C -320.132812 99.457031 -319.484375 98.621094 -318.839844 97.777344 C -316.5 94.703125 -314.011719 91.84375 -311.34375 89.050781 L -310.128906 87.773438 C -308.910156 86.496094 -307.6875 85.226562 -306.464844 83.957031 L -305.382812 82.820312 C -300.667969 77.90625 -295.78125 73.515625 -290.277344 69.503906 L -288.917969 68.507812 C -283.769531 64.773438 -278.65625 61.152344 -272.972656 58.273438 C -271.339844 57.433594 -269.761719 56.527344 -268.183594 55.585938 C -264.617188 53.476562 -261.035156 51.808594 -257.121094 50.429688 C -255.492188 49.875 -255.492188 49.875 -253.855469 48.691406 C -252.875 48.398438 -251.886719 48.136719 -250.894531 47.894531 C -248.824219 47.359375 -246.933594 46.757812 -245.003906 45.835938 C -241.546875 44.214844 -237.875 43.320312 -234.199219 42.332031 L -232.84375 41.929688 C -228.59375 40.695312 -224.304688 39.929688 -219.933594 39.261719 C -218.742188 39.082031 -217.554688 38.890625 -216.367188 38.699219 C -207.871094 37.363281 -199.394531 37.011719 -190.804688 37.019531 M -205.214844 73.863281 C -206.664062 74.171875 -208.078125 74.300781 -209.558594 74.378906 C -212.417969 74.613281 -215.066406 75.1875 -217.835938 75.929688 C -219.230469 76.300781 -220.632812 76.65625 -222.039062 76.988281 C -226.445312 78.03125 -230.628906 79.234375 -234.777344 81.066406 L -236.828125 81.921875 C -240.65625 83.480469 -240.65625 83.480469 -244.304688 85.398438 C -245.761719 86.269531 -245.761719 86.269531 -247.6875 87.089844 C -258.3125 91.667969 -268.640625 99.046875 -276.914062 107.074219 C -278.136719 108.238281 -278.136719 108.238281 -279.292969 108.816406 L -279.292969 109.972656 L -280.246094 110.320312 C -282.175781 111.46875 -283.445312 113.105469 -284.859375 114.8125 L -285.777344 115.910156 C -286.402344 116.652344 -287.023438 117.398438 -287.644531 118.144531 C -288.46875 119.132812 -289.300781 120.117188 -290.140625 121.097656 C -294.332031 126.039062 -297.964844 131 -300.992188 136.734375 C -301.804688 138.234375 -302.671875 139.671875 -303.574219 141.117188 C -305.613281 144.472656 -307.195312 148.011719 -308.777344 151.597656 L -309.71875 153.65625 C -310.890625 156.585938 -311.847656 159.582031 -312.824219 162.582031 L -313.230469 163.71875 C -316.46875 172.960938 -317.933594 182.878906 -318.027344 192.644531 L -318.050781 194.070312 C -319.007812 211.382812 -319.007812 211.382812 -315.136719 227.910156 L -314.992188 229.96875 C -314.710938 232.777344 -313.980469 235.398438 -313.1875 238.097656 L -312.820312 239.351562 C -312.023438 241.984375 -311.023438 244.460938 -309.933594 246.988281 C -309.59375 248.125 -309.269531 249.269531 -308.957031 250.421875 C -307.660156 254.761719 -305.675781 258.644531 -303.578125 262.636719 C -302.972656 263.800781 -302.386719 264.972656 -301.804688 266.144531 C -297.21875 275.339844 -291.007812 283.230469 -284.261719 290.933594 C -283.300781 292.039062 -282.371094 293.171875 -281.480469 294.332031 L -280.449219 295.550781 L -279.292969 295.550781 L -279.292969 296.707031 C -278.300781 297.621094 -277.273438 298.5 -276.222656 299.34375 L -274.496094 300.753906 C -272.996094 301.988281 -272.996094 301.988281 -271.199219 302.488281 L -271.199219 303.644531 C -270.074219 304.609375 -268.953125 305.503906 -267.765625 306.390625 L -266.730469 307.175781 C -263.121094 309.882812 -259.445312 312.417969 -255.492188 314.601562 C -254.746094 315.03125 -254.011719 315.472656 -253.285156 315.9375 C -245.917969 320.578125 -237.902344 323.980469 -229.660156 326.714844 C -227.839844 327.347656 -227.839844 327.347656 -227.261719 327.925781 L -225.417969 328.179688 C -223.378906 328.480469 -221.683594 328.972656 -219.746094 329.660156 C -208.882812 333.066406 -197.492188 333.238281 -186.214844 333.238281 L -184.714844 333.238281 C -183.285156 333.238281 -181.859375 333.234375 -180.433594 333.226562 L -179.125 333.222656 C -177.160156 333.207031 -175.382812 333.117188 -173.496094 332.550781 C -172.390625 332.476562 -171.28125 332.417969 -170.171875 332.371094 C -165.964844 332.066406 -162.050781 331.105469 -158 330 C -156.671875 329.644531 -155.339844 329.3125 -154.003906 328.988281 C -143.105469 326.289062 -132.945312 321.972656 -123.40625 316.027344 C -121.921875 315.132812 -120.402344 314.34375 -118.863281 313.542969 C -116.078125 312.042969 -113.699219 310.277344 -111.277344 308.253906 C -110.050781 307.234375 -108.800781 306.289062 -107.519531 305.34375 C -103.222656 302.027344 -99.351562 298.15625 -95.449219 294.394531 L -94.457031 293.480469 L -93.714844 292.660156 L -93.714844 291.503906 L -92.558594 291.503906 C -91.695312 290.542969 -90.863281 289.554688 -90.066406 288.539062 L -88.65625 286.773438 L -87.355469 285.144531 C -86.816406 284.515625 -86.273438 283.890625 -85.730469 283.265625 C -84.789062 282.097656 -83.960938 280.855469 -83.238281 279.542969 C -82.152344 277.628906 -82.152344 277.628906 -81.300781 276.785156 C -80.3125 275.785156 -79.765625 274.824219 -79.117188 273.582031 C -78.023438 271.550781 -76.84375 269.617188 -75.578125 267.691406 C -71.5 261.3125 -68.753906 254.707031 -66.363281 247.570312 C -65.816406 245.972656 -65.21875 244.390625 -64.617188 242.808594 C -63.203125 239.058594 -62.097656 235.316406 -61.339844 231.378906 L -61.074219 229.996094 C -60.746094 228.148438 -60.460938 226.296875 -60.183594 224.441406 L -59.964844 223.035156 C -57.765625 208.707031 -57.964844 194.808594 -60.183594 180.503906 L -60.496094 178.324219 C -61.070312 174.527344 -62.007812 170.894531 -63.074219 167.207031 L -63.578125 165.273438 C -64.707031 161.046875 -66.15625 157.203125 -68.0625 153.269531 C -68.691406 151.949219 -69.246094 150.59375 -69.722656 149.210938 C -70.835938 146.167969 -72.421875 143.402344 -74.058594 140.613281 C -74.3125 140.175781 -74.570312 139.738281 -74.832031 139.289062 C -78.824219 132.511719 -83.074219 126.179688 -88.226562 120.226562 C -88.835938 119.515625 -89.441406 118.792969 -90.039062 118.066406 L -90.972656 116.941406 L -91.808594 115.914062 L -92.558594 115.175781 L -93.714844 115.175781 L -94.167969 114.152344 C -96.367188 110.121094 -100.703125 107.164062 -104.222656 104.347656 C -105.261719 103.511719 -106.292969 102.660156 -107.308594 101.792969 C -113.90625 96.1875 -121.253906 91.328125 -128.980469 87.425781 L -130.582031 86.570312 C -134.941406 84.292969 -139.429688 82.554688 -144.050781 80.894531 C -145.195312 80.476562 -146.335938 80.046875 -147.472656 79.609375 C -154.558594 76.949219 -161.699219 74.753906 -169.285156 74.328125 C -170.863281 74.160156 -172.300781 73.890625 -173.847656 73.546875 C -176.765625 72.957031 -179.539062 72.804688 -182.511719 72.820312 C -183.015625 72.816406 -183.519531 72.816406 -184.039062 72.816406 C -185.097656 72.8125 -186.152344 72.816406 -187.210938 72.820312 C -188.8125 72.828125 -190.414062 72.820312 -192.015625 72.8125 C -193.050781 72.8125 -194.085938 72.816406 -195.121094 72.816406 L -196.546875 72.8125 C -199.535156 72.835938 -202.296875 73.214844 -205.214844 73.863281 M -680.179688 45.171875 C -671.011719 48.535156 -664.085938 54.671875 -657.09375 61.265625 C -655.757812 62.519531 -654.386719 63.742188 -652.992188 64.925781 C -649.425781 68.023438 -646.152344 71.429688 -642.824219 74.777344 L -640.789062 76.824219 C -639.542969 78.074219 -638.296875 79.324219 -637.054688 80.578125 C -636 81.636719 -634.941406 82.695312 -633.886719 83.753906 C -632.757812 84.882812 -631.636719 86.011719 -630.515625 87.144531 C -629.800781 87.863281 -629.085938 88.585938 -628.371094 89.304688 L -627.269531 90.417969 L -626.214844 91.480469 L -625.261719 92.445312 C -624.441406 93.269531 -624.441406 93.269531 -623.277344 93.785156 L -623.277344 94.941406 L -622.121094 94.941406 L -622.121094 96.097656 L -620.964844 96.097656 C -620.195312 96.878906 -620.195312 96.878906 -619.277344 97.996094 C -616.492188 101.269531 -613.445312 104.273438 -610.402344 107.304688 L -608.449219 109.257812 C -606.691406 111.011719 -604.9375 112.765625 -603.179688 114.519531 C -601.335938 116.363281 -599.492188 118.203125 -597.648438 120.046875 C -594.160156 123.535156 -590.671875 127.019531 -587.179688 130.503906 C -583.214844 134.460938 -579.253906 138.417969 -575.292969 142.378906 C -567.476562 150.195312 -559.652344 158.011719 -551.816406 165.824219 C -550.84375 166.796875 -549.871094 167.769531 -548.898438 168.742188 C -547.980469 169.660156 -547.0625 170.570312 -546.136719 171.480469 L -544.726562 172.878906 L -543.320312 174.261719 C -542.164062 175.464844 -541.046875 176.699219 -539.964844 177.964844 C -537.605469 180.671875 -535.082031 183.199219 -532.53125 185.722656 L -531.058594 187.1875 C -529.523438 188.71875 -527.984375 190.25 -526.441406 191.777344 C -524.410156 193.792969 -522.382812 195.808594 -520.355469 197.828125 L -518.960938 199.207031 C -516.527344 201.628906 -514.195312 204.097656 -511.960938 206.707031 C -510.785156 208.0625 -509.515625 209.3125 -508.230469 210.566406 C -507.445312 211.347656 -506.664062 212.132812 -505.882812 212.914062 L -501.292969 217.503906 L -499.558594 216.925781 L -499.683594 215.425781 C -500.230469 207.886719 -500.230469 200.359375 -500.238281 192.804688 L -500.25 188.347656 C -500.261719 183.921875 -500.269531 179.496094 -500.273438 175.074219 L -500.28125 170.0625 C -500.292969 160.890625 -500.304688 151.71875 -500.308594 142.546875 L -500.308594 141.195312 C -500.3125 133.949219 -500.328125 126.699219 -500.347656 119.449219 C -500.367188 111.992188 -500.375 104.53125 -500.378906 97.070312 C -500.378906 92.886719 -500.386719 88.707031 -500.398438 84.523438 C -500.414062 80.597656 -500.414062 76.667969 -500.410156 72.742188 C -500.410156 71.300781 -500.414062 69.863281 -500.421875 68.421875 C -500.429688 66.453125 -500.425781 64.488281 -500.417969 62.519531 L -500.4375 60.800781 C -500.402344 57.085938 -499.6875 54.234375 -497.824219 51.003906 C -495.960938 48.605469 -493.957031 47.496094 -491.230469 46.316406 C -488.65625 45.429688 -486.074219 45.257812 -483.371094 45.078125 L -481.738281 44.941406 C -469.09375 43.953125 -469.09375 43.953125 -463.503906 46.398438 C -460.933594 47.90625 -459.007812 49.65625 -457.355469 52.160156 C -455.4375 56.691406 -455.371094 61.148438 -455.390625 66.003906 C -455.386719 66.808594 -455.382812 67.613281 -455.378906 68.421875 C -455.367188 70.621094 -455.371094 72.824219 -455.371094 75.023438 C -455.371094 77.402344 -455.363281 79.785156 -455.355469 82.164062 C -455.339844 86.285156 -455.332031 90.410156 -455.332031 94.53125 C -455.328125 100.511719 -455.3125 106.492188 -455.296875 112.46875 C -455.273438 122.195312 -455.253906 131.925781 -455.242188 141.652344 C -455.230469 151.054688 -455.214844 160.460938 -455.195312 169.863281 L -455.191406 171.613281 L -455.171875 180.3125 C -455.113281 206.046875 -455.070312 231.78125 -455.039062 257.515625 C -455.035156 259.875 -455.035156 262.234375 -455.03125 264.59375 L -455.03125 266.699219 C -455.023438 270.789062 -455.078125 274.878906 -455.1875 278.964844 L -455.226562 280.371094 C -455.34375 283.636719 -456.339844 286.347656 -457.933594 289.191406 C -460.195312 291.796875 -462.835938 294.171875 -466.027344 295.550781 C -467.753906 295.8125 -469.484375 295.796875 -471.230469 295.804688 L -472.707031 295.808594 C -476.976562 295.730469 -480.199219 294.757812 -483.949219 292.660156 L -483.949219 291.503906 L -484.984375 291.308594 C -490.375 289.6875 -495.519531 282.289062 -499.414062 278.351562 C -500.914062 276.835938 -502.417969 275.320312 -503.921875 273.808594 L -504.953125 272.761719 C -506.273438 271.433594 -507.53125 270.203125 -509.042969 269.085938 L -509.964844 268.378906 L -509.964844 267.222656 L -511.121094 267.222656 C -512.738281 265.734375 -514.179688 264.152344 -515.566406 262.453125 C -516.730469 260.851562 -516.730469 260.851562 -518.058594 260.285156 L -518.058594 259.128906 L -519.792969 258.550781 L -519.792969 257.394531 L -522.105469 256.238281 L -522.105469 255.082031 L -523.261719 255.082031 C -524.203125 254.285156 -524.203125 254.285156 -524.996094 253.347656 L -524.996094 252.191406 L -526.152344 252.191406 C -527.671875 250.816406 -527.671875 250.816406 -529.042969 249.300781 L -529.042969 248.144531 L -530.089844 247.675781 C -531.355469 246.988281 -532.171875 246.355469 -533.089844 245.253906 L -533.089844 244.097656 L -534.246094 244.097656 L -534.246094 242.941406 L -535.292969 242.472656 C -536.558594 241.785156 -537.375 241.152344 -538.292969 240.050781 L -538.292969 238.894531 L -539.234375 238.53125 C -541.136719 237.429688 -542.683594 235.976562 -544.074219 234.269531 L -544.074219 233.113281 L -545.230469 233.113281 L -545.230469 231.957031 L -546.351562 231.488281 L -547.542969 230.800781 L -548.121094 229.066406 C -549.277344 228.367188 -549.277344 228.367188 -550.433594 227.910156 L -550.433594 226.753906 L -551.375 226.390625 C -553.277344 225.289062 -554.824219 223.835938 -556.214844 222.128906 L -556.214844 220.972656 L -557.230469 220.550781 C -558.773438 219.675781 -559.65625 218.675781 -560.804688 217.324219 C -562.476562 215.363281 -564.21875 213.535156 -566.042969 211.722656 L -570.644531 207.113281 L -571.5625 206.195312 C -578.523438 199.222656 -585.488281 192.253906 -592.453125 185.28125 C -596.476562 181.253906 -600.5 177.222656 -604.523438 173.195312 C -608.039062 169.675781 -611.554688 166.15625 -615.074219 162.636719 C -616.933594 160.777344 -618.792969 158.914062 -620.652344 157.050781 C -622.398438 155.304688 -624.144531 153.554688 -625.894531 151.808594 L -627.816406 149.878906 C -628.691406 149.003906 -629.566406 148.128906 -630.441406 147.253906 L -631.925781 145.769531 C -633.019531 144.632812 -633.019531 144.632812 -634.261719 144.082031 L -634.261719 142.347656 L -635.257812 141.921875 C -636.832031 141.046875 -637.882812 140.007812 -639.144531 138.722656 L -640.671875 137.179688 L -641.476562 136.359375 C -642.3125 135.503906 -643.152344 134.65625 -643.992188 133.808594 C -646.378906 131.394531 -648.761719 128.980469 -651.140625 126.558594 C -652.597656 125.074219 -654.058594 123.597656 -655.523438 122.125 C -656.078125 121.558594 -656.636719 120.996094 -657.1875 120.429688 C -657.960938 119.640625 -658.738281 118.851562 -659.515625 118.070312 L -660.855469 116.710938 L -662.011719 115.753906 L -663.746094 115.753906 L -663.695312 117.476562 C -663.234375 133.625 -663.054688 149.761719 -662.992188 165.914062 C -662.980469 169.28125 -662.964844 172.648438 -662.949219 176.015625 C -662.925781 181.703125 -662.898438 187.390625 -662.878906 193.078125 C -662.855469 198.765625 -662.832031 204.449219 -662.804688 210.132812 C -662.734375 225.476562 -662.675781 240.816406 -662.628906 256.160156 C -662.609375 263.445312 -662.582031 270.730469 -662.550781 278.015625 C -662.523438 284.738281 -662.5 291.460938 -662.484375 298.183594 C -662.476562 301.71875 -662.460938 305.253906 -662.445312 308.785156 C -662.429688 312.0625 -662.417969 315.339844 -662.417969 318.617188 C -662.414062 319.8125 -662.40625 321.011719 -662.398438 322.207031 C -662.386719 323.847656 -662.386719 325.484375 -662.390625 327.125 L -662.371094 328.542969 C -662.394531 332.003906 -663.070312 335.101562 -664.324219 338.332031 C -665.617188 340.292969 -666.972656 341.695312 -668.949219 342.957031 C -675.414062 345.808594 -682.726562 345.660156 -689.636719 345.089844 C -693.484375 344.628906 -696.96875 344.085938 -700.167969 341.800781 C -701.914062 340.378906 -703.289062 339.089844 -704.238281 337.027344 C -706.402344 330.851562 -705.496094 323.003906 -705.550781 316.5 L -705.585938 312.988281 C -705.617188 309.746094 -705.648438 306.503906 -705.671875 303.261719 C -705.691406 301.160156 -705.707031 299.0625 -705.726562 296.960938 C -706.082031 255.328125 -706.058594 213.695312 -706.054688 172.0625 C -706.058594 162.96875 -706.0625 153.878906 -706.070312 144.785156 C -706.078125 135.304688 -706.082031 125.820312 -706.082031 116.339844 C -706.082031 111.070312 -706.082031 105.804688 -706.089844 100.539062 C -706.09375 96.101562 -706.097656 91.664062 -706.09375 87.226562 C -706.089844 84.972656 -706.089844 82.722656 -706.09375 80.46875 C -706.144531 57.859375 -706.144531 57.859375 -703.914062 53.222656 C -702.453125 50.867188 -700.769531 49.117188 -698.46875 47.570312 C -697.695312 47.15625 -696.914062 46.757812 -696.121094 46.378906 L -694.097656 45.332031 C -689.746094 43.851562 -684.589844 44.046875 -680.179688 45.171875 M 165.863281 111.707031 L 167.632812 112.167969 C 172.625 113.558594 177.035156 115.714844 181.59375 118.109375 C 182.945312 118.808594 184.324219 119.445312 185.699219 120.089844 C 190.078125 122.269531 193.867188 125.417969 197.660156 128.472656 L 198.683594 129.273438 C 201.472656 131.535156 203.777344 134.140625 205.753906 137.144531 L 205.753906 138.300781 L 206.910156 138.300781 C 207.605469 139.160156 207.605469 139.160156 208.378906 140.378906 L 209.242188 141.734375 L 210.160156 143.214844 L 211.109375 144.722656 C 213.648438 148.84375 215.832031 153.066406 217.925781 157.421875 C 218.855469 159.3125 219.855469 161.164062 220.855469 163.015625 C 222.207031 165.527344 223.53125 168.046875 224.796875 170.601562 C 226.820312 174.691406 228.96875 178.71875 231.117188 182.742188 C 231.734375 183.910156 232.351562 185.078125 232.96875 186.242188 C 234.820312 189.75 236.714844 193.222656 238.707031 196.65625 C 240.574219 199.875 242.265625 203.160156 243.90625 206.496094 C 245.414062 209.550781 246.996094 212.554688 248.613281 215.550781 C 249.808594 217.78125 250.964844 220.035156 252.074219 222.308594 C 253.394531 224.980469 254.863281 227.519531 256.421875 230.058594 C 257.09375 231.195312 257.71875 232.355469 258.289062 233.546875 C 259.34375 235.726562 260.546875 237.8125 261.757812 239.90625 C 263.214844 242.421875 264.597656 244.949219 265.878906 247.566406 C 267.285156 250.4375 268.839844 253.191406 270.445312 255.953125 C 272.125 258.875 273.636719 261.863281 275.125 264.886719 C 276.453125 267.566406 277.824219 270.226562 279.246094 272.859375 C 281.511719 277.066406 283.65625 281.324219 285.75 285.617188 C 286.675781 287.429688 287.660156 289.195312 288.664062 290.960938 C 291.105469 295.265625 293.355469 299.609375 295.417969 304.105469 C 296.691406 306.875 298.066406 309.566406 299.519531 312.242188 C 304.949219 322.347656 304.949219 322.347656 304.882812 327.238281 C 304.613281 328.503906 304.613281 328.503906 303.90625 329.75 C 302.640625 331.0625 301.730469 331.421875 299.988281 331.972656 C 298.015625 332.121094 298.015625 332.121094 295.734375 332.128906 L 294.46875 332.140625 C 293.09375 332.148438 291.71875 332.148438 290.34375 332.144531 L 287.464844 332.152344 C 285.453125 332.15625 283.445312 332.15625 281.433594 332.15625 C 278.863281 332.152344 276.292969 332.160156 273.722656 332.175781 C 271.742188 332.183594 269.761719 332.183594 267.78125 332.183594 C 266.832031 332.183594 265.882812 332.183594 264.9375 332.191406 C 263.609375 332.199219 262.285156 332.195312 260.957031 332.1875 L 258.671875 332.1875 C 256.457031 331.953125 255.066406 331.367188 253.160156 330.238281 C 248.753906 326.65625 246.160156 322.152344 243.71875 317.121094 C 242.695312 315.089844 241.582031 313.121094 240.441406 311.160156 C 238.691406 308.148438 237.097656 305.082031 235.566406 301.953125 C 234.351562 299.570312 233.015625 297.257812 231.671875 294.941406 C 230.253906 292.488281 228.972656 290 227.722656 287.457031 L 226.78125 285.902344 C 225.988281 284.566406 225.988281 284.566406 225.546875 283.367188 C 224.308594 280.4375 222.636719 277.730469 221.050781 274.980469 L 220.273438 273.613281 L 219.5625 272.375 C 219.050781 271.269531 219.050781 271.269531 219.050781 269.535156 L 217.894531 269.535156 L 217.191406 267.808594 C 216.136719 265.347656 214.84375 263.046875 213.523438 260.71875 C 210.6875 255.675781 207.984375 250.574219 205.304688 245.449219 C 200.648438 236.378906 200.648438 236.378906 195.5625 227.546875 C 194.769531 226.175781 194.769531 226.175781 194.027344 224.40625 C 192.90625 221.761719 191.566406 219.242188 190.214844 216.707031 L 189.476562 215.308594 C 188.035156 212.585938 186.5625 209.878906 185.058594 207.191406 C 183.984375 205.261719 182.921875 203.328125 181.871094 201.386719 L 181.242188 200.25 C 179.738281 197.46875 179.738281 197.46875 179.738281 195.535156 L 178.582031 195.535156 L 177.929688 193.871094 C 176.933594 191.535156 175.632812 189.441406 174.296875 187.28125 C 173.359375 185.671875 172.574219 184.035156 171.789062 182.347656 C 170.234375 179.144531 168.289062 176.472656 166.058594 173.726562 C 164.914062 172.3125 164.132812 171.261719 163.550781 169.519531 C 162.59375 169.121094 161.628906 168.734375 160.660156 168.363281 L 159.363281 167.265625 C 156.21875 164.867188 152.371094 163.84375 148.519531 163.160156 C 142.816406 162.546875 136.640625 162.28125 131.210938 164.351562 C 127.375 166.339844 124.355469 168.851562 121.996094 172.480469 C 120.109375 175.664062 119.433594 178.410156 119.371094 182.101562 L 119.339844 183.453125 C 119.304688 184.9375 119.277344 186.421875 119.25 187.910156 L 119.183594 191.097656 C 118.960938 202.523438 118.984375 213.949219 119.027344 225.378906 C 119.039062 229.203125 119.046875 233.027344 119.054688 236.851562 C 119.074219 247.699219 119.097656 258.550781 119.132812 269.398438 C 119.152344 275.441406 119.167969 281.480469 119.175781 287.523438 C 119.179688 291.316406 119.191406 295.113281 119.207031 298.910156 C 119.21875 301.261719 119.21875 303.613281 119.21875 305.96875 C 119.222656 307.054688 119.226562 308.140625 119.234375 309.222656 C 119.273438 315.273438 119.207031 320.523438 116.515625 326.078125 C 115.207031 328.027344 113.976562 329.777344 111.988281 331.070312 C 106.429688 333.585938 100.132812 333.328125 94.15625 333.3125 C 92.730469 333.308594 91.308594 333.324219 89.886719 333.335938 C 84.027344 333.359375 78.664062 333.054688 73.363281 330.273438 C 71.386719 328.914062 70.4375 327.746094 69.296875 325.6875 C 67.625 321.992188 68.078125 317.289062 68.085938 313.3125 L 68.082031 311.566406 C 68.082031 309.648438 68.082031 307.726562 68.085938 305.808594 L 68.082031 301.664062 C 68.078125 298.308594 68.078125 294.953125 68.082031 291.59375 C 68.082031 288.863281 68.082031 286.132812 68.082031 283.402344 L 68.082031 279.84375 C 68.082031 272.425781 68.082031 265.003906 68.085938 257.585938 C 68.085938 251.238281 68.085938 244.890625 68.085938 238.539062 C 68.082031 230.363281 68.078125 222.183594 68.082031 214.007812 L 68.082031 212.828125 C 68.082031 210.105469 68.082031 207.386719 68.082031 204.664062 C 68.078125 200.988281 68.082031 197.308594 68.085938 193.632812 C 68.085938 192.292969 68.082031 190.949219 68.082031 189.605469 C 68.066406 169.429688 68.066406 169.429688 70.472656 161.425781 L 71.039062 159.449219 C 72.148438 155.695312 73.375 152.316406 75.421875 148.960938 C 76.277344 147.597656 76.277344 147.597656 76.769531 146.203125 C 80.257812 137.777344 87.589844 129.800781 94.753906 124.28125 C 97.570312 122.285156 100.480469 120.4375 103.425781 118.644531 L 104.839844 117.757812 C 108.273438 115.734375 111.855469 114.335938 115.601562 113.007812 L 117.050781 112.492188 C 120.371094 111.355469 123.675781 110.578125 127.128906 109.972656 L 129.125 109.605469 C 141.265625 107.761719 154.046875 108.285156 165.863281 111.707031 M 296.222656 514.050781 C 299.445312 515.324219 302.1875 516.792969 304.613281 519.285156 L 304.613281 520.441406 L 305.769531 520.441406 C 306.230469 521.222656 306.6875 522.003906 307.140625 522.789062 L 307.914062 524.109375 C 309.992188 528.390625 310.011719 532.332031 309.996094 537.027344 L 310.023438 538.964844 C 310.027344 542.890625 309.574219 546.367188 308.507812 550.144531 C 308.109375 551.558594 307.804688 552.960938 307.539062 554.40625 C 307.039062 556.988281 306.4375 559.546875 305.804688 562.101562 L 305.527344 563.238281 C 305.03125 565.226562 304.464844 567.167969 303.796875 569.109375 C 302.644531 572.496094 301.761719 575.949219 300.855469 579.410156 C 299.832031 583.304688 298.789062 587.160156 297.480469 590.96875 C 296.886719 592.761719 296.453125 594.589844 296.011719 596.429688 C 295.078125 600.269531 294.046875 604.078125 292.972656 607.882812 C 292.007812 611.3125 291.132812 614.757812 290.308594 618.222656 C 290.078125 619.164062 289.835938 620.101562 289.582031 621.035156 L 289.003906 621.613281 C 288.816406 622.378906 288.648438 623.152344 288.496094 623.925781 C 288.109375 625.753906 287.644531 627.480469 287.015625 629.238281 C 285.988281 632.179688 285.410156 635.191406 284.808594 638.242188 C 284.417969 639.9375 283.878906 641.398438 283.222656 643.003906 C 282.929688 644.105469 282.652344 645.214844 282.390625 646.328125 C 281.898438 648.359375 281.382812 650.351562 280.691406 652.324219 C 279.769531 654.996094 279 657.703125 278.234375 660.417969 L 277.851562 661.757812 C 277.292969 663.769531 276.84375 665.675781 276.558594 667.75 C 276.300781 669.484375 275.898438 670.382812 275.128906 671.910156 C 274.023438 675.496094 273.761719 679.050781 273.753906 682.785156 L 273.710938 684.242188 C 273.707031 685.570312 273.738281 686.792969 273.972656 688.097656 C 274.929688 689.589844 274.929688 689.589844 276.285156 690.410156 C 279.105469 691.183594 281.394531 690.960938 284.167969 690.242188 C 289.601562 688.609375 294.195312 685.933594 298.972656 682.949219 C 299.84375 682.40625 300.714844 681.871094 301.589844 681.34375 C 307.40625 677.753906 313.070312 673.722656 318.394531 669.433594 C 320.417969 667.828125 322.460938 666.898438 325.027344 666.5 C 326.394531 666.417969 327.550781 666.421875 328.894531 666.707031 C 330.261719 668.007812 330.949219 669.085938 331.785156 670.753906 C 331.828125 674.6875 330.753906 678.304688 328.894531 681.738281 C 326.15625 686 323.113281 690.125 319.398438 693.585938 C 318.441406 694.5 317.605469 695.464844 316.753906 696.480469 C 314.582031 698.992188 312.261719 701.347656 309.925781 703.707031 L 308.75 704.902344 L 307.636719 706.019531 L 306.632812 707.03125 L 305.769531 707.753906 L 304.613281 707.753906 L 304.613281 708.910156 C 303.761719 709.765625 303.761719 709.765625 302.589844 710.753906 L 301.449219 711.714844 L 299.988281 712.957031 L 298.972656 713.863281 C 296.179688 716.355469 293.277344 718.621094 290.230469 720.796875 L 288.839844 721.792969 C 273.980469 732.359375 273.980469 732.359375 266.382812 733.449219 C 255.019531 734.238281 255.019531 734.238281 249.582031 731.707031 C 246.367188 729.957031 243.464844 727.839844 241.019531 725.097656 L 241.019531 723.941406 L 239.863281 723.941406 C 236.730469 720.050781 235.085938 715.265625 234.285156 710.394531 C 233.1875 699.25 234.90625 689.203125 237.976562 678.542969 C 238.691406 676.042969 239.320312 673.53125 239.933594 671.007812 C 240.601562 668.285156 241.332031 665.617188 242.261719 662.972656 C 242.976562 660.835938 243.601562 658.679688 244.234375 656.515625 L 244.601562 655.261719 C 245.847656 650.988281 247.0625 646.710938 248.246094 642.425781 C 249.101562 639.339844 249.964844 636.253906 250.847656 633.175781 C 251.332031 631.464844 251.8125 629.753906 252.292969 628.042969 L 252.664062 626.726562 C 253.40625 624.082031 254.054688 621.410156 254.613281 618.71875 C 254.976562 617.214844 255.566406 615.816406 256.136719 614.382812 C 256.949219 612.003906 257.496094 609.554688 258.082031 607.113281 C 258.683594 604.640625 259.410156 602.207031 260.257812 599.808594 C 260.992188 597.484375 261.46875 595.097656 261.976562 592.714844 C 262.410156 590.972656 262.410156 590.972656 262.984375 589.554688 C 263.699219 587.742188 264.078125 585.941406 264.46875 584.035156 L 264.90625 581.9375 C 265.234375 580.324219 265.558594 578.710938 265.878906 577.097656 C 264.898438 577.648438 263.9375 578.230469 262.988281 578.832031 L 262.410156 579.988281 L 261.253906 579.988281 L 260.859375 580.941406 C 259.863281 582.714844 258.53125 584.089844 257.132812 585.550781 C 254.609375 588.238281 252.234375 591.054688 250.015625 594 L 249.113281 595.019531 L 247.957031 595.019531 L 247.632812 596.210938 C 246.84375 597.824219 246.265625 598.515625 244.992188 599.714844 C 242.664062 601.917969 240.917969 604.429688 239.109375 607.066406 L 238.128906 608.316406 L 236.972656 608.316406 L 236.527344 609.300781 C 234.441406 613.191406 231.128906 616.507812 228.214844 619.800781 C 225.414062 623.019531 222.660156 626.292969 220.242188 629.8125 L 219.050781 631.441406 L 217.894531 631.441406 L 217.441406 632.433594 C 216.664062 633.890625 215.757812 635.074219 214.714844 636.355469 L 213.484375 637.871094 C 212.507812 639.054688 211.527344 640.238281 210.542969 641.414062 L 209.75 642.359375 C 209 643.257812 208.246094 644.152344 207.488281 645.042969 C 206.332031 646.363281 206.332031 646.363281 205.753906 647.628906 L 204.597656 647.628906 L 204.144531 648.625 C 201.820312 652.980469 198.011719 656.683594 194.820312 660.4375 C 190.546875 665.441406 190.546875 665.441406 186.675781 670.753906 L 185.519531 670.753906 L 185.085938 671.71875 C 184.222656 673.328125 183.183594 674.675781 182.050781 676.101562 L 180.820312 677.664062 L 179.738281 678.847656 L 178.582031 678.847656 C 178.429688 679.183594 178.277344 679.519531 178.117188 679.867188 C 177.398438 681.210938 176.601562 682.199219 175.582031 683.328125 L 174.488281 684.550781 L 173.378906 685.785156 C 172.726562 686.542969 172.078125 687.300781 171.425781 688.0625 C 167.855469 692.132812 164.316406 696.113281 159.410156 698.542969 C 155.835938 699.714844 151.660156 699.519531 147.941406 699.082031 C 144.773438 698.183594 142.34375 696.496094 139.882812 694.347656 C 138.144531 692.429688 137.242188 690.601562 136.632812 688.089844 C 135.75 682.070312 136.191406 676.875 138.070312 671.082031 C 138.746094 668.839844 139.167969 666.628906 139.558594 664.320312 C 140.140625 660.953125 141.019531 657.832031 142.171875 654.617188 C 143.0625 651.804688 143.546875 648.9375 144.0625 646.039062 C 144.472656 644.160156 144.472656 644.160156 145.03125 643.070312 C 145.703125 641.691406 146.015625 640.417969 146.332031 638.921875 L 146.699219 637.234375 L 147.074219 635.488281 C 147.316406 634.34375 147.566406 633.199219 147.8125 632.054688 L 148.140625 630.523438 C 148.511719 629.160156 149.035156 628.066406 149.675781 626.816406 C 149.992188 625.414062 150.28125 624.003906 150.542969 622.589844 C 150.957031 620.355469 151.394531 618.199219 152.039062 616.019531 C 152.507812 614.304688 152.691406 613.003906 152.636719 611.242188 L 152.605469 609.890625 L 152.566406 608.894531 C 150.527344 609.308594 149.300781 610.074219 147.722656 611.457031 C 146.339844 612.792969 145.09375 614.230469 143.847656 615.695312 C 142.632812 617.109375 141.386719 618.496094 140.136719 619.878906 C 135.039062 625.539062 130.15625 631.242188 125.835938 637.527344 C 124.832031 638.933594 123.777344 640.261719 122.683594 641.59375 C 119.917969 644.996094 117.4375 648.589844 114.925781 652.179688 C 113.203125 654.644531 111.433594 657.078125 109.65625 659.503906 C 108.664062 660.882812 107.679688 662.273438 106.714844 663.671875 C 104.703125 666.5625 102.621094 669.398438 100.53125 672.234375 C 96.910156 677.125 96.910156 677.125 93.730469 682.308594 C 92.476562 684.363281 91 686.265625 89.550781 688.1875 C 88.492188 689.691406 87.574219 691.226562 86.675781 692.832031 C 85.679688 694.585938 84.578125 696.269531 83.480469 697.960938 L 82.816406 698.988281 C 82.382812 699.660156 81.949219 700.332031 81.511719 701.003906 C 80.90625 701.933594 80.308594 702.867188 79.71875 703.804688 C 77.625 706.777344 74.929688 709.25 71.699219 710.933594 C 67.980469 711.527344 65.035156 711.78125 61.425781 710.4375 C 57.671875 708.71875 55.015625 707.019531 52.550781 703.707031 C 51.734375 702.148438 51.414062 701.011719 51.242188 699.265625 C 51.433594 696.851562 52.335938 695.042969 53.453125 692.9375 L 54.085938 691.714844 C 55.957031 688.125 57.988281 684.632812 60.066406 681.160156 C 60.476562 680.425781 60.886719 679.691406 61.292969 678.957031 C 62.300781 677.242188 63.394531 675.675781 64.566406 674.074219 C 65.457031 672.796875 66.203125 671.449219 66.960938 670.089844 C 68.214844 667.929688 69.652344 665.886719 71.050781 663.816406 C 71.722656 662.808594 72.394531 661.804688 73.0625 660.796875 L 74.542969 658.578125 C 75.808594 656.683594 77.070312 654.785156 78.328125 652.882812 C 80.917969 648.964844 83.546875 645.121094 86.375 641.367188 C 87.332031 640.101562 87.332031 640.101562 87.816406 638.378906 L 88.972656 638.378906 L 89.332031 637.238281 C 90.449219 634.777344 92.027344 632.738281 93.632812 630.574219 C 94.3125 629.648438 94.992188 628.722656 95.671875 627.796875 L 96.683594 626.414062 C 98.472656 623.933594 100.167969 621.390625 101.859375 618.84375 L 102.847656 617.566406 L 104.003906 617.566406 L 104.183594 616.554688 C 104.652344 615.019531 105.332031 614.148438 106.351562 612.90625 C 107.949219 610.917969 109.484375 608.902344 110.976562 606.835938 C 117.589844 597.695312 124.640625 588.882812 131.820312 580.1875 C 132.964844 578.800781 132.964844 578.800781 134.066406 577.097656 L 135.222656 577.097656 L 135.671875 576.078125 C 136.980469 573.683594 139.046875 571.894531 140.96875 569.980469 L 142.308594 568.640625 C 146.402344 564.632812 150.414062 561.324219 156.035156 559.753906 C 161.058594 559.117188 166.613281 558.425781 171.40625 560.355469 C 174.003906 561.597656 176.527344 562.902344 178.582031 564.957031 L 178.582031 566.691406 L 180.316406 567.269531 C 183.070312 570.917969 184.734375 574.921875 185.519531 579.410156 C 186.507812 590.113281 185.382812 601.167969 182.527344 611.519531 C 181.324219 616.554688 180.585938 621.710938 179.738281 626.816406 C 181.058594 626.253906 181.960938 625.757812 182.941406 624.699219 L 183.773438 623.5625 L 184.691406 622.328125 L 185.628906 621.035156 L 186.582031 619.742188 C 188.207031 617.582031 188.207031 617.582031 189.566406 615.253906 L 190.722656 615.253906 L 191.195312 614.238281 C 191.882812 612.933594 192.648438 611.832031 193.539062 610.664062 L 194.402344 609.527344 C 195.058594 608.6875 195.71875 607.851562 196.386719 607.023438 C 197.402344 605.746094 198.402344 604.457031 199.386719 603.15625 L 200.335938 601.902344 C 200.980469 601.054688 201.621094 600.207031 202.261719 599.355469 C 204.175781 596.832031 206.175781 594.425781 208.277344 592.058594 C 209.625 590.507812 210.84375 588.890625 212.078125 587.25 C 214.117188 584.558594 216.273438 581.96875 218.550781 579.472656 C 219.644531 578.238281 220.652344 576.960938 221.652344 575.652344 C 223.367188 573.410156 225.199219 571.316406 227.085938 569.222656 C 228.386719 567.746094 229.628906 566.234375 230.867188 564.703125 C 232.996094 562.074219 235.214844 559.546875 237.488281 557.046875 C 239.839844 554.460938 242.128906 551.824219 244.382812 549.15625 C 247.214844 545.816406 250.042969 542.566406 253.195312 539.519531 C 255.023438 537.632812 256.632812 535.570312 258.261719 533.515625 C 259.566406 531.949219 260.953125 530.535156 262.410156 529.113281 L 263.480469 528 C 268.910156 522.402344 275.75 515.949219 283.433594 513.757812 C 287.707031 513.042969 292.027344 512.910156 296.222656 514.050781 " fill-opacity="1" fill-rule="nonzero"/></g><g clip-path="url(#80e2a5fa3a)"><path fill="#ffffff" d="M -125.910156 125.363281 L -124.738281 125.484375 C -122.742188 125.757812 -121.320312 126.242188 -119.550781 127.214844 C -118.082031 128.402344 -117.28125 129.246094 -116.40625 130.894531 L -115.730469 132.109375 C -114.160156 136.054688 -113.777344 139.992188 -113.796875 144.203125 L -113.792969 145.746094 C -113.785156 147.441406 -113.789062 149.136719 -113.789062 150.832031 C -113.789062 152.050781 -113.785156 153.273438 -113.78125 154.492188 C -113.773438 157.800781 -113.773438 161.105469 -113.773438 164.414062 C -113.773438 167.175781 -113.773438 169.941406 -113.769531 172.703125 C -113.765625 179.226562 -113.761719 185.75 -113.765625 192.273438 C -113.769531 198.996094 -113.761719 205.714844 -113.75 212.433594 C -113.742188 218.214844 -113.738281 223.992188 -113.738281 229.769531 C -113.742188 233.21875 -113.738281 236.664062 -113.730469 240.113281 C -113.722656 243.355469 -113.722656 246.597656 -113.730469 249.84375 C -113.734375 251.03125 -113.730469 252.214844 -113.726562 253.402344 C -113.679688 265.742188 -113.679688 265.742188 -115.683594 270.113281 C -117.328125 272.523438 -119.007812 274.269531 -121.464844 275.859375 C -125.199219 277.179688 -129.101562 277.304688 -133.027344 277.050781 C -137.804688 276.015625 -141.433594 273.738281 -145.167969 270.691406 C -146.894531 269.089844 -148.546875 267.421875 -150.191406 265.742188 L -151.472656 264.441406 C -152.265625 263.640625 -153.054688 262.839844 -153.839844 262.039062 C -156.222656 259.617188 -158.636719 257.222656 -161.042969 254.824219 L -162.941406 252.929688 L -163.957031 251.917969 C -171.664062 244.226562 -179.367188 236.539062 -187.070312 228.847656 C -191.519531 224.402344 -195.976562 219.960938 -200.429688 215.515625 C -204.320312 211.636719 -208.210938 207.757812 -212.097656 203.871094 C -214.152344 201.816406 -216.210938 199.761719 -218.269531 197.710938 C -220.207031 195.785156 -222.136719 193.855469 -224.066406 191.921875 C -224.777344 191.214844 -225.488281 190.503906 -226.199219 189.796875 C -227.167969 188.832031 -228.132812 187.867188 -229.097656 186.902344 L -229.964844 186.042969 C -230.628906 185.375 -231.261719 184.675781 -231.886719 183.972656 L -231.886719 182.816406 L -234.199219 182.816406 L -233.621094 184.550781 C -233.566406 185.621094 -233.546875 186.695312 -233.542969 187.765625 L -233.535156 189.792969 L -233.539062 192.023438 L -233.53125 194.367188 C -233.527344 196.492188 -233.523438 198.617188 -233.523438 200.742188 L -233.523438 204.734375 C -233.515625 209.375 -233.515625 214.019531 -233.515625 218.664062 C -233.515625 222.984375 -233.507812 227.300781 -233.5 231.621094 C -233.492188 235.335938 -233.488281 239.046875 -233.488281 242.761719 C -233.488281 244.976562 -233.488281 247.191406 -233.480469 249.40625 C -233.476562 251.496094 -233.476562 253.582031 -233.480469 255.671875 C -233.480469 256.792969 -233.476562 257.914062 -233.472656 259.039062 C -233.507812 268.996094 -233.507812 268.996094 -235.738281 272.988281 C -237.585938 274.953125 -238.996094 276.296875 -241.5 277.375 C -242.648438 277.546875 -242.648438 277.546875 -244.027344 277.628906 L -245.894531 277.746094 C -250.292969 277.878906 -254.386719 277.609375 -258.480469 275.894531 C -260.1875 274.863281 -261.5 273.71875 -262.578125 272.011719 C -265.089844 265.746094 -264.453125 257.597656 -264.5 250.933594 L -264.535156 247.882812 C -264.566406 245.144531 -264.589844 242.410156 -264.613281 239.675781 C -264.636719 236.789062 -264.667969 233.90625 -264.699219 231.023438 C -264.753906 226.175781 -264.800781 221.332031 -264.84375 216.488281 C -264.90625 209.695312 -264.972656 202.902344 -265.046875 196.113281 C -265.324219 169.152344 -265.324219 169.152344 -265.417969 156.222656 L -265.433594 154.046875 C -265.445312 152.253906 -265.457031 150.464844 -265.460938 148.675781 L -265.46875 147.238281 C -265.476562 142.453125 -265.332031 137.445312 -263.503906 132.980469 C -262.207031 130.832031 -260.800781 129.90625 -258.695312 128.621094 C -254.050781 126.15625 -249.160156 126.574219 -244.027344 126.738281 L -242.148438 126.789062 C -236.429688 127.09375 -231.425781 128.851562 -226.597656 131.9375 C -224.695312 133.277344 -222.933594 134.730469 -221.167969 136.25 L -220.097656 137.171875 C -216.449219 140.339844 -213.019531 143.699219 -209.617188 147.121094 L -207.667969 149.066406 C -206.328125 150.40625 -204.988281 151.75 -203.648438 153.089844 C -201.929688 154.816406 -200.210938 156.535156 -198.484375 158.25 C -197.152344 159.578125 -195.820312 160.910156 -194.492188 162.242188 C -193.855469 162.878906 -193.222656 163.515625 -192.585938 164.148438 C -191.703125 165.027344 -190.824219 165.90625 -189.949219 166.792969 L -188.4375 168.308594 L -187.371094 169.519531 L -187.371094 170.675781 L -186.367188 171.109375 C -184.855469 171.941406 -183.816406 172.917969 -182.601562 174.144531 L -181.363281 175.371094 L -180.433594 176.457031 L -180.433594 177.613281 L -179.3125 178.082031 L -178.121094 178.769531 L -177.542969 180.503906 L -176.386719 180.503906 L -176.386719 181.660156 L -175.230469 181.660156 L -175.230469 182.816406 L -173.496094 183.394531 L -173.496094 184.550781 L -172.339844 184.550781 C -171.585938 185.316406 -171.585938 185.316406 -170.679688 186.429688 C -168.761719 188.6875 -166.738281 190.800781 -164.644531 192.898438 L -163.71875 193.828125 C -162.113281 195.460938 -162.113281 195.460938 -160.199219 196.691406 L -160.199219 197.847656 L -159.042969 197.847656 C -158.222656 198.679688 -158.222656 198.679688 -157.261719 199.84375 C -154.964844 202.546875 -152.496094 205.039062 -149.972656 207.53125 L -148.667969 208.828125 C -147.867188 209.621094 -147.070312 210.417969 -146.269531 211.207031 C -145.128906 212.339844 -143.992188 213.476562 -142.855469 214.613281 L -142.859375 213.390625 C -142.886719 203.550781 -142.902344 193.710938 -142.917969 183.871094 C -142.921875 179.113281 -142.929688 174.355469 -142.941406 169.597656 C -142.953125 165.449219 -142.960938 161.300781 -142.964844 157.152344 C -142.964844 154.957031 -142.96875 152.761719 -142.976562 150.566406 C -142.984375 148.496094 -142.988281 146.429688 -142.988281 144.359375 C -142.988281 143.246094 -142.992188 142.128906 -143 141.011719 C -142.992188 137.394531 -142.8125 134.234375 -141.699219 130.785156 C -140.535156 128.796875 -138.992188 127.4375 -137.074219 126.160156 C -133.351562 124.933594 -129.753906 124.925781 -125.910156 125.363281 M -664.492188 520.941406 L -661.960938 520.941406 C -660.207031 520.9375 -658.453125 520.941406 -656.699219 520.945312 C -654.46875 520.945312 -652.234375 520.945312 -650 520.941406 C -648.261719 520.941406 -646.523438 520.941406 -644.785156 520.941406 C -643.964844 520.941406 -643.140625 520.941406 -642.316406 520.941406 C -633.796875 520.929688 -633.796875 520.929688 -629.636719 521.597656 C -628.15625 522.574219 -628.15625 522.574219 -627.324219 523.910156 C -627 525.5 -627 525.5 -627.324219 527.378906 C -628.128906 529.035156 -629.15625 530.5 -630.214844 532.003906 L -631.246094 533.523438 C -634.457031 538.203125 -634.457031 538.203125 -635.996094 539.519531 L -637.152344 539.519531 L -637.59375 540.503906 C -638.410156 542.019531 -639.382812 543.246094 -640.476562 544.578125 C -641.925781 546.359375 -643.347656 548.144531 -644.703125 549.996094 C -646.757812 552.757812 -649.042969 555.296875 -651.339844 557.855469 C -656.136719 563.253906 -660.644531 568.925781 -665.039062 574.652344 C -666.628906 576.664062 -668.28125 578.621094 -669.941406 580.574219 C -671.324219 582.207031 -671.324219 582.207031 -672.417969 584.035156 L -673.574219 584.035156 C -673.726562 584.363281 -673.875 584.691406 -674.027344 585.03125 C -676.351562 589.386719 -680.160156 593.09375 -683.355469 596.847656 C -686.175781 600.171875 -688.925781 603.550781 -691.554688 607.03125 L -692.652344 608.316406 L -693.808594 608.316406 L -694.292969 609.339844 C -696.21875 613.027344 -699.148438 616.09375 -701.925781 619.152344 C -703.335938 620.777344 -704.585938 622.488281 -705.820312 624.253906 L -706.527344 625.082031 L -707.683594 625.082031 L -708.046875 626.308594 C -709.105469 628.523438 -710.519531 629.765625 -712.308594 631.441406 C -710.242188 636.003906 -706.382812 639.734375 -703.058594 643.417969 C -701.855469 644.789062 -700.71875 646.199219 -699.589844 647.628906 C -697.753906 649.949219 -695.832031 652.164062 -693.847656 654.363281 C -692.070312 656.382812 -690.390625 658.476562 -688.695312 660.566406 C -687.628906 661.863281 -686.539062 663.136719 -685.425781 664.394531 C -683.785156 666.261719 -682.171875 668.152344 -680.585938 670.066406 L -679.25 671.667969 C -678.199219 673.066406 -678.199219 673.066406 -677.621094 674.800781 L -676.464844 674.800781 C -675.441406 676.011719 -674.457031 677.253906 -673.503906 678.523438 C -670.964844 681.828125 -668.292969 685.019531 -665.480469 688.097656 C -664.707031 688.949219 -663.9375 689.804688 -663.167969 690.664062 L -662.15625 691.78125 L -661.433594 692.722656 L -661.433594 693.878906 L -660.277344 693.878906 C -659.339844 695.007812 -658.433594 696.164062 -657.566406 697.347656 C -655.621094 699.9375 -653.640625 702.4375 -651.476562 704.847656 C -649.769531 706.792969 -648.160156 708.8125 -646.53125 710.824219 C -645.039062 712.628906 -643.484375 714.375 -641.902344 716.101562 L -641.199219 717.003906 L -641.199219 718.160156 L -640.042969 718.160156 C -639.277344 719.136719 -638.539062 720.136719 -637.839844 721.160156 C -636.203125 723.464844 -634.554688 725.433594 -632.527344 727.410156 C -631.339844 728.851562 -630.171875 730.3125 -629.023438 731.789062 C -628.109375 732.933594 -627.164062 734 -626.167969 735.070312 C -625.011719 736.660156 -625.011719 736.660156 -624.722656 738.539062 L -625.011719 740.128906 C -626.945312 741.417969 -627.816406 741.492188 -630.097656 741.640625 C -634.238281 741.902344 -638.363281 741.945312 -642.511719 741.9375 L -644.824219 741.941406 C -646.425781 741.941406 -648.03125 741.941406 -649.636719 741.9375 C -651.660156 741.933594 -653.6875 741.9375 -655.714844 741.941406 C -677.894531 741.972656 -677.894531 741.972656 -681.011719 740.507812 C -682.300781 739.691406 -683.414062 738.820312 -684.558594 737.816406 L -686.328125 736.515625 L -687.449219 735.503906 L -687.449219 734.347656 L -688.605469 734.347656 C -689.519531 733.242188 -690.398438 732.109375 -691.242188 730.949219 C -693.847656 727.472656 -696.640625 724.242188 -699.589844 721.050781 C -700.378906 720.1875 -701.160156 719.320312 -701.9375 718.449219 L -702.933594 717.347656 L -703.636719 716.425781 L -703.636719 715.269531 L -704.792969 715.269531 C -705.546875 714.414062 -705.546875 714.414062 -706.457031 713.171875 C -708.671875 710.222656 -711.070312 707.453125 -713.515625 704.6875 C -714.289062 703.800781 -715.035156 702.886719 -715.777344 701.972656 L -715.777344 700.816406 L -716.933594 700.816406 C -717.714844 699.957031 -718.453125 699.054688 -719.175781 698.140625 C -721.320312 695.460938 -723.507812 692.828125 -725.75 690.230469 C -726.589844 689.253906 -727.429688 688.277344 -728.269531 687.300781 C -728.816406 686.660156 -729.371094 686.023438 -729.925781 685.390625 C -730.625 684.578125 -731.296875 683.738281 -731.964844 682.894531 L -731.964844 681.738281 L -733.121094 681.738281 C -734.144531 680.523438 -735.132812 679.285156 -736.085938 678.015625 C -738.285156 675.152344 -740.539062 672.390625 -742.972656 669.714844 C -744.726562 667.742188 -746.367188 665.679688 -748.03125 663.628906 C -749.171875 662.253906 -750.34375 660.90625 -751.550781 659.589844 C -753.785156 657.109375 -755.816406 654.492188 -757.855469 651.851562 C -759.59375 649.625 -761.402344 647.527344 -763.328125 645.460938 C -765.894531 642.699219 -768.054688 639.789062 -770.121094 636.644531 L -771.277344 634.910156 C -771.703125 632.921875 -771.632812 631.125 -771.277344 629.128906 C -769.453125 624.984375 -766.839844 621.433594 -763.761719 618.144531 C -758.261719 612.019531 -758.261719 612.019531 -753.355469 605.425781 L -752.199219 605.425781 C -751.980469 604.9375 -751.980469 604.9375 -751.753906 604.4375 C -750.949219 602.933594 -749.992188 601.722656 -748.910156 600.402344 C -747.398438 598.539062 -745.894531 596.667969 -744.429688 594.765625 C -742.953125 592.863281 -741.449219 590.984375 -739.914062 589.128906 C -737.867188 586.640625 -735.863281 584.117188 -733.878906 581.578125 C -732.039062 579.222656 -730.1875 576.898438 -728.21875 574.648438 C -724.96875 570.875 -721.867188 566.984375 -718.90625 562.980469 L -718.089844 562.066406 L -716.933594 562.066406 L -716.484375 561.074219 C -715.695312 559.601562 -714.773438 558.410156 -713.71875 557.113281 L -712.46875 555.578125 L -711.152344 553.972656 L -709.855469 552.382812 C -708.988281 551.324219 -708.117188 550.265625 -707.25 549.203125 C -705.945312 547.605469 -704.644531 546.003906 -703.347656 544.398438 L -702.210938 542.984375 C -701.300781 541.878906 -701.300781 541.878906 -700.746094 540.675781 L -699.589844 540.675781 L -699.121094 539.699219 C -698.371094 538.238281 -697.609375 536.839844 -696.699219 535.472656 L -695.542969 535.472656 L -695.117188 534.511719 C -692.832031 530.277344 -689.140625 526.042969 -685.136719 523.332031 C -682.675781 521.941406 -680.789062 521.351562 -677.972656 521.203125 C -677.261719 521.167969 -676.550781 521.128906 -675.816406 521.089844 C -672.042969 520.96875 -668.269531 520.9375 -664.492188 520.941406 M -522.757812 520.945312 L -521.546875 520.953125 C -518.929688 520.960938 -516.3125 520.984375 -513.695312 521.007812 C -512.226562 521.019531 -510.757812 521.027344 -509.289062 521.03125 C -506.746094 521.042969 -504.203125 521.070312 -501.660156 521.109375 C -500.679688 521.121094 -499.695312 521.128906 -498.714844 521.132812 C -490.027344 521.164062 -490.027344 521.164062 -486.300781 522.976562 C -484.21875 524.1875 -482.578125 525.507812 -481.058594 527.378906 L -481.058594 528.535156 L -479.902344 528.535156 L -479.902344 529.691406 L -478.746094 529.691406 C -478 530.535156 -478 530.535156 -477.230469 531.640625 L -476.449219 532.738281 L -475.855469 533.738281 L -475.855469 534.894531 L -474.699219 534.894531 C -473.894531 535.777344 -473.128906 536.703125 -472.386719 537.640625 L -470.992188 539.386719 L -470.253906 540.3125 C -468.988281 541.882812 -467.6875 543.429688 -466.390625 544.976562 C -462.972656 549.046875 -462.972656 549.046875 -461.980469 550.503906 L -461.980469 551.660156 L -460.824219 551.660156 C -459.910156 552.765625 -459.03125 553.898438 -458.1875 555.054688 C -455.964844 558.023438 -453.632812 560.804688 -451.125 563.535156 C -448.859375 566.042969 -446.753906 568.683594 -444.636719 571.316406 L -443.445312 572.800781 C -441.917969 574.703125 -440.398438 576.613281 -438.878906 578.519531 C -435.070312 583.289062 -431.207031 588.019531 -427.292969 592.707031 C -423.390625 597.378906 -419.542969 602.097656 -415.746094 606.855469 C -413.640625 609.476562 -411.503906 612.074219 -409.371094 614.675781 C -408.058594 616.273438 -406.75 617.875 -405.445312 619.480469 C -404.601562 620.507812 -403.742188 621.527344 -402.875 622.535156 C -400.714844 625.089844 -398.8125 627.46875 -397.933594 630.742188 C -397.746094 632.664062 -398.117188 634.097656 -398.84375 635.878906 C -400.882812 639.789062 -403.625 643.148438 -406.558594 646.410156 C -407.765625 647.773438 -408.910156 649.175781 -410.058594 650.589844 C -412.113281 653.121094 -414.214844 655.601562 -416.34375 658.070312 C -418.695312 660.792969 -420.984375 663.5625 -423.214844 666.382812 C -424.636719 668.15625 -426.109375 669.886719 -427.582031 671.621094 C -432.285156 677.085938 -432.285156 677.085938 -436.542969 682.894531 L -437.699219 682.894531 L -438.09375 683.832031 C -439.101562 685.652344 -440.421875 687.148438 -441.78125 688.710938 C -442.355469 689.378906 -442.925781 690.046875 -443.5 690.714844 L -444.367188 691.726562 C -445.640625 693.226562 -446.898438 694.738281 -448.140625 696.261719 L -449.390625 697.785156 C -450.480469 699.125 -450.480469 699.125 -451.574219 700.816406 L -452.730469 700.816406 L -453.054688 702.007812 C -454.023438 703.984375 -455.210938 705.085938 -456.785156 706.59375 C -458.460938 708.285156 -459.875 710.15625 -461.34375 712.027344 C -462.578125 713.558594 -463.871094 715.007812 -465.195312 716.460938 C -467.1875 718.640625 -469.011719 720.890625 -470.800781 723.238281 C -472.574219 725.488281 -474.511719 727.59375 -476.433594 729.722656 C -479.199219 732.839844 -479.199219 732.839844 -481.816406 736.082031 L -482.792969 737.238281 L -483.949219 737.238281 L -483.949219 738.394531 C -484.757812 739.117188 -484.757812 739.117188 -485.902344 739.875 L -487 740.636719 C -492.179688 742.765625 -498.695312 741.957031 -504.222656 741.960938 L -507.078125 741.964844 C -509.0625 741.96875 -511.046875 741.96875 -513.03125 741.96875 C -515.5625 741.96875 -518.09375 741.976562 -520.628906 741.988281 C -522.589844 741.992188 -524.550781 741.996094 -526.511719 741.996094 C -527.445312 741.996094 -528.378906 741.996094 -529.3125 742.003906 C -539.054688 742.046875 -539.054688 742.046875 -542.917969 740.707031 C -543.664062 739.625 -543.664062 739.625 -544.074219 738.394531 C -543.078125 735.28125 -541.480469 732.847656 -539.449219 730.300781 L -538.292969 730.300781 L -537.863281 729.023438 C -537.054688 727.222656 -536.109375 726.128906 -534.753906 724.699219 C -532.949219 722.753906 -531.226562 720.789062 -529.585938 718.699219 C -528.144531 716.871094 -526.671875 715.109375 -525.105469 713.390625 C -522.867188 710.90625 -520.816406 708.296875 -518.761719 705.660156 C -515.460938 701.421875 -512.035156 697.289062 -508.484375 693.261719 C -506.003906 690.453125 -503.652344 687.542969 -501.292969 684.628906 L -499.953125 682.976562 C -497.824219 680.464844 -497.824219 680.464844 -496.089844 677.691406 L -494.933594 677.691406 L -494.484375 676.679688 C -493.710938 675.25 -492.820312 674.222656 -491.71875 673.03125 C -488.359375 669.324219 -485.085938 665.523438 -482.25 661.394531 L -481.058594 659.769531 L -479.902344 659.769531 L -479.445312 658.769531 C -476.972656 654.125 -472.859375 650.199219 -469.417969 646.246094 C -464.945312 641.105469 -460.722656 635.84375 -456.777344 630.285156 L -458.511719 629.707031 L -458.511719 628.550781 L -459.667969 628.550781 C -460.414062 627.707031 -460.414062 627.707031 -461.1875 626.597656 L -461.96875 625.5 L -462.558594 624.503906 L -462.558594 623.347656 L -463.714844 623.347656 C -464.710938 622.15625 -465.675781 620.941406 -466.605469 619.699219 C -469.511719 615.90625 -472.613281 612.398438 -475.855469 608.894531 C -476.863281 607.773438 -477.824219 606.617188 -478.746094 605.425781 L -478.746094 604.269531 L -479.902344 604.269531 C -480.855469 603.128906 -481.769531 601.960938 -482.648438 600.765625 C -483.171875 600.066406 -483.699219 599.371094 -484.222656 598.675781 L -484.988281 597.660156 C -486.300781 595.945312 -487.714844 594.320312 -489.152344 592.707031 C -491.582031 589.976562 -493.898438 587.207031 -496.125 584.308594 C -497.882812 582.066406 -499.71875 579.894531 -501.546875 577.710938 C -503.40625 575.480469 -505.253906 573.234375 -507.082031 570.980469 C -508.042969 569.816406 -509.015625 568.664062 -510 567.523438 L -511.121094 566.113281 L -511.121094 564.957031 L -512.277344 564.957031 C -513.023438 564.113281 -513.023438 564.113281 -513.796875 563.003906 L -514.578125 561.90625 L -515.167969 560.910156 L -515.167969 559.753906 L -516.324219 559.753906 C -517.261719 558.625 -518.167969 557.46875 -519.035156 556.285156 C -520.980469 553.691406 -522.964844 551.191406 -525.128906 548.777344 C -527.28125 546.332031 -529.300781 543.777344 -531.355469 541.253906 L -534.03125 538 L -535.320312 536.410156 C -536.113281 535.4375 -536.921875 534.472656 -537.746094 533.519531 C -539.492188 531.4375 -540.839844 529.574219 -541.617188 526.945312 C -541.808594 525.652344 -541.808594 525.652344 -541.761719 524.488281 L -540.859375 522.753906 C -535.882812 519.859375 -528.375 520.925781 -522.757812 520.945312 M 261.832031 43.488281 C 267.28125 45.707031 272.371094 48.898438 276.285156 53.316406 L 276.285156 54.472656 L 277.441406 54.472656 C 278.378906 55.84375 278.378906 55.84375 279.175781 57.363281 L 279.175781 58.519531 L 280.332031 58.519531 C 280.988281 59.867188 281.636719 61.214844 282.28125 62.566406 L 282.835938 63.703125 C 285.167969 68.609375 285.734375 72.972656 285.714844 78.355469 L 285.742188 80.054688 C 285.746094 86.0625 284.164062 91.871094 281.488281 97.253906 C 280.230469 99.253906 278.847656 101.140625 277.441406 103.035156 C 276.945312 103.78125 276.453125 104.527344 275.960938 105.273438 C 274.4375 107.226562 273.203125 108.136719 271.082031 109.394531 L 267.9375 111.453125 C 263.5 114.257812 259.175781 116.070312 253.886719 116.441406 C 252.199219 116.484375 250.511719 116.488281 248.824219 116.476562 L 247.105469 116.488281 C 239.542969 116.46875 234.109375 114.195312 227.644531 110.445312 C 222.273438 107.039062 218.292969 102.070312 215.003906 96.675781 C 214.082031 94.789062 213.34375 92.886719 212.691406 90.894531 L 212.253906 89.664062 C 210.976562 85.847656 210.640625 82.332031 210.667969 78.320312 L 210.675781 76.472656 C 210.828125 69.910156 212.574219 65.089844 215.980469 59.457031 C 216.996094 57.890625 216.996094 57.890625 217.894531 56.785156 L 219.050781 56.785156 L 219.375 55.554688 C 221.03125 52.246094 224.222656 50.398438 227.234375 48.410156 L 228.300781 47.714844 C 228.636719 47.496094 228.972656 47.277344 229.316406 47.046875 C 238.832031 40.984375 251.179688 39.890625 261.832031 43.488281 " fill-opacity="1" fill-rule="nonzero"/></g></svg>