<svg xmlns="http://www.w3.org/2000/svg" xmlns:xlink="http://www.w3.org/1999/xlink" width="500" zoomAndPan="magnify" viewBox="0 0 375 374.999991" height="500" preserveAspectRatio="xMidYMid meet" version="1.0"><defs><clipPath id="bcd17d5848"><path d="M 187.5 0 C 83.945312 0 0 83.945312 0 187.5 C 0 291.054688 83.945312 375 187.5 375 C 291.054688 375 375 291.054688 375 187.5 C 375 83.945312 291.054688 0 187.5 0 Z M 187.5 0 " clip-rule="nonzero"/></clipPath><clipPath id="116bd6b0c4"><path d="M 0 0 L 375 0 L 375 375 L 0 375 Z M 0 0 " clip-rule="nonzero"/></clipPath><clipPath id="7b5008c453"><path d="M 187.5 0 C 83.945312 0 0 83.945312 0 187.5 C 0 291.054688 83.945312 375 187.5 375 C 291.054688 375 375 291.054688 375 187.5 C 375 83.945312 291.054688 0 187.5 0 Z M 187.5 0 " clip-rule="nonzero"/></clipPath><clipPath id="ba97dd0be5"><rect x="0" width="375" y="0" height="375"/></clipPath><clipPath id="c64a5ed06b"><path d="M 99.121094 78 L 276.121094 78 L 276.121094 297.386719 L 99.121094 297.386719 Z M 99.121094 78 " clip-rule="nonzero"/></clipPath><clipPath id="93f64bab1f"><path d="M 99.121094 81 L 259 81 L 259 297.386719 L 99.121094 297.386719 Z M 99.121094 81 " clip-rule="nonzero"/></clipPath></defs><g clip-path="url(#bcd17d5848)"><g transform="matrix(1, 0, 0, 1, 0, 0)"><g clip-path="url(#ba97dd0be5)"><g clip-path="url(#116bd6b0c4)"><g clip-path="url(#7b5008c453)"><rect x="-82.5" width="540" fill="#ffffff" height="539.999987" y="-82.499998" fill-opacity="1"/></g></g></g></g></g><g clip-path="url(#c64a5ed06b)"><path fill="#000000" d="M -158.976562 406.539062 L -157.074219 406.53125 C -155.34375 406.527344 -153.617188 406.53125 -151.890625 406.53125 C -150.019531 406.53125 -148.152344 406.527344 -146.28125 406.523438 C -142.628906 406.519531 -138.972656 406.519531 -135.316406 406.519531 C -132.34375 406.519531 -129.371094 406.519531 -126.398438 406.519531 L -125.117188 406.519531 L -122.535156 406.515625 C -114.46875 406.511719 -106.40625 406.511719 -98.34375 406.515625 C -90.972656 406.515625 -83.597656 406.511719 -76.226562 406.503906 C -68.648438 406.496094 -61.074219 406.492188 -53.492188 406.496094 C -49.242188 406.496094 -44.992188 406.496094 -40.742188 406.488281 C -37.125 406.484375 -33.507812 406.484375 -29.886719 406.488281 C -28.042969 406.492188 -26.199219 406.488281 -24.355469 406.484375 C -22.664062 406.480469 -20.972656 406.484375 -19.28125 406.488281 C -18.675781 406.488281 -18.066406 406.488281 -17.457031 406.484375 C -13.878906 406.464844 -10.292969 406.523438 -6.9375 407.902344 C -5.476562 409.121094 -4.464844 410.402344 -3.566406 412.070312 C -2.984375 413.957031 -3.050781 415.78125 -3.054688 417.742188 L -3.046875 419.101562 C -3.039062 420.609375 -3.035156 422.117188 -3.035156 423.625 C -3.03125 424.703125 -3.023438 425.785156 -3.019531 426.863281 C -3.007812 429.496094 -3 432.132812 -2.992188 434.765625 C -2.984375 437.839844 -2.972656 440.917969 -2.960938 443.996094 C -2.941406 449.5 -2.925781 455.003906 -2.910156 460.507812 C -2.894531 465.824219 -2.878906 471.136719 -2.855469 476.453125 C -2.832031 483.1875 -2.808594 489.917969 -2.785156 496.648438 C -2.78125 498.78125 -2.773438 500.914062 -2.765625 503.046875 C -2.753906 505.664062 -2.746094 508.277344 -2.738281 510.894531 C -2.738281 512.222656 -2.734375 513.550781 -2.726562 514.878906 C -2.703125 520.570312 -2.761719 526.25 -2.941406 531.933594 L -2.988281 533.589844 L -3.042969 535.113281 L -3.089844 536.46875 C -3.175781 537.53125 -3.175781 537.53125 -3.59375 538.367188 C -3.722656 539.5625 -3.804688 540.753906 -3.894531 541.949219 L -4.011719 542.96875 L -4.429688 543.386719 L -4.613281 544.796875 C -4.847656 546.3125 -4.847656 546.3125 -5.683594 547.566406 C -5.855469 548.15625 -6.011719 548.75 -6.152344 549.34375 C -6.976562 552.210938 -8.4375 554.71875 -9.886719 557.308594 C -10.226562 557.925781 -10.5625 558.546875 -10.890625 559.171875 C -11.914062 561.089844 -13.050781 562.648438 -14.464844 564.292969 L -14.882812 565.546875 L -15.71875 565.546875 L -16.035156 566.277344 C -16.625 567.347656 -17.300781 568.074219 -18.164062 568.941406 L -19.113281 569.894531 L -20.109375 570.878906 L -21.105469 571.886719 L -22.058594 572.835938 L -22.929688 573.703125 L -23.664062 574.332031 L -24.5 574.332031 L -24.5 575.167969 C -25.273438 575.820312 -25.273438 575.820312 -26.382812 576.605469 L -27.648438 577.503906 C -29.546875 578.828125 -31.457031 580.128906 -33.371094 581.433594 C -35.199219 582.6875 -36.972656 583.984375 -38.679688 585.398438 C -39.632812 586.097656 -40.640625 586.65625 -41.671875 587.234375 C -43.15625 588.109375 -44.535156 589.136719 -45.929688 590.140625 C -48.261719 591.804688 -50.609375 593.398438 -53.039062 594.910156 C -54.714844 595.996094 -56.328125 597.171875 -57.941406 598.355469 C -59.308594 599.351562 -60.695312 600.21875 -62.175781 601.042969 C -63.796875 601.992188 -65.324219 603.082031 -66.867188 604.148438 L -67.929688 604.882812 C -70.046875 606.339844 -72.164062 607.808594 -74.257812 609.300781 C -75.214844 609.953125 -76.199219 610.535156 -77.1875 611.128906 C -77.765625 611.519531 -78.339844 611.910156 -78.914062 612.304688 C -81.050781 613.734375 -83.269531 614.964844 -85.550781 616.148438 L -86.363281 616.597656 C -87.359375 617.105469 -88.273438 617.390625 -89.390625 617.441406 C -92.746094 617.214844 -94.945312 615.46875 -97.679688 613.636719 C -98.777344 612.890625 -99.875 612.140625 -100.972656 611.390625 L -101.875 610.769531 C -103.332031 609.769531 -104.769531 608.757812 -106.171875 607.679688 C -107.746094 606.472656 -109.414062 605.4375 -111.101562 604.398438 C -112.363281 603.570312 -113.5625 602.679688 -114.765625 601.769531 C -116.285156 600.621094 -117.828125 599.511719 -119.371094 598.402344 L -120.378906 597.675781 C -123.941406 595.109375 -127.539062 592.609375 -131.199219 590.1875 C -133.390625 588.730469 -135.53125 587.21875 -137.660156 585.675781 C -138.949219 584.738281 -138.949219 584.738281 -140.332031 583.949219 L -140.332031 583.113281 L -141.15625 582.851562 C -142.929688 582.042969 -144.410156 580.921875 -145.976562 579.765625 L -146.992188 579.019531 C -147.667969 578.523438 -148.34375 578.027344 -149.019531 577.527344 C -149.808594 576.945312 -150.601562 576.371094 -151.402344 575.800781 C -159.445312 569.902344 -165.816406 562.46875 -170.023438 553.421875 C -170.328125 552.867188 -170.640625 552.320312 -170.960938 551.777344 C -172.121094 549.746094 -172.742188 547.722656 -173.367188 545.476562 L -173.683594 544.507812 C -174.398438 542.300781 -174.800781 540.238281 -174.953125 537.921875 L -175.039062 537.113281 L -175.457031 536.695312 C -175.507812 535.722656 -175.535156 534.75 -175.542969 533.773438 L -175.554688 532.835938 C -175.566406 531.785156 -175.578125 530.738281 -175.585938 529.691406 L -175.613281 527.4375 C -175.636719 525.382812 -175.65625 523.324219 -175.675781 521.265625 C -175.6875 519.960938 -175.703125 518.65625 -175.714844 517.351562 C -175.914062 497.605469 -175.953125 477.855469 -175.953125 458.109375 C -175.953125 454.335938 -175.957031 450.566406 -175.964844 446.796875 C -175.96875 443.089844 -175.972656 439.378906 -175.972656 435.671875 C -175.972656 433.488281 -175.972656 431.308594 -175.976562 429.125 C -175.980469 427.105469 -175.980469 425.085938 -175.980469 423.066406 C -175.976562 422.328125 -175.980469 421.59375 -175.980469 420.855469 C -175.984375 419.851562 -175.984375 418.847656 -175.980469 417.839844 L -175.984375 416.964844 C -175.96875 414.535156 -175.472656 412.242188 -174.308594 410.097656 C -173.367188 408.738281 -173.367188 408.738281 -172.347656 407.980469 C -168.023438 406.539062 -163.488281 406.523438 -158.976562 406.539062 M -137.550781 443.542969 C -138.292969 444.238281 -138.292969 444.238281 -138.558594 445.183594 C -138.992188 447.578125 -139.199219 449.996094 -139.1875 452.433594 L -139.191406 453.574219 C -139.195312 454.824219 -139.195312 456.074219 -139.191406 457.324219 L -139.199219 460.023438 C -139.203125 462.464844 -139.203125 464.902344 -139.203125 467.339844 C -139.203125 469.378906 -139.207031 471.414062 -139.207031 473.453125 C -139.210938 478.261719 -139.210938 483.070312 -139.210938 487.875 C -139.207031 492.832031 -139.210938 497.789062 -139.222656 502.742188 C -139.226562 507.003906 -139.230469 511.265625 -139.230469 515.523438 C -139.230469 518.066406 -139.230469 520.609375 -139.234375 523.152344 C -139.242188 525.539062 -139.242188 527.929688 -139.234375 530.320312 C -139.234375 531.195312 -139.234375 532.074219 -139.238281 532.949219 C -139.242188 534.144531 -139.238281 535.34375 -139.234375 536.542969 L -139.242188 537.585938 C -139.21875 540.433594 -138.496094 542.84375 -137.25 545.398438 C -136.421875 546.511719 -135.640625 547.21875 -134.476562 547.984375 C -130.980469 549.21875 -127.269531 549.152344 -123.605469 548.820312 C -122.039062 548.484375 -120.742188 548.0625 -119.425781 547.148438 C -118.539062 546.128906 -118.539062 546.128906 -118.167969 545.058594 L -117.75 544.222656 C -117.714844 543.433594 -117.703125 542.640625 -117.707031 541.851562 L -117.707031 540.324219 L -117.71875 538.640625 L -117.722656 536.871094 C -117.722656 535.601562 -117.726562 534.328125 -117.734375 533.058594 C -117.738281 531.046875 -117.746094 529.039062 -117.746094 527.027344 C -117.757812 521.3125 -117.773438 515.59375 -117.792969 509.875 C -117.800781 506.71875 -117.808594 503.566406 -117.8125 500.410156 C -117.816406 498.410156 -117.820312 496.414062 -117.832031 494.417969 C -117.835938 493.171875 -117.839844 491.925781 -117.839844 490.683594 C -117.839844 490.105469 -117.839844 489.53125 -117.84375 488.953125 C -117.851562 488.164062 -117.851562 487.375 -117.847656 486.589844 L -117.851562 485.253906 C -117.742188 483.894531 -117.394531 482.769531 -116.914062 481.496094 C -116.164062 481.617188 -116.164062 481.617188 -115.242188 481.914062 C -114.570312 482.527344 -114.570312 482.527344 -113.910156 483.328125 L -113.136719 484.253906 L -112.316406 485.261719 L -111.496094 486.257812 C -110.882812 487.003906 -110.269531 487.75 -109.660156 488.5 C -108.324219 490.144531 -106.972656 491.78125 -105.625 493.414062 L -102.082031 497.71875 C -101.554688 498.355469 -101.027344 498.996094 -100.503906 499.636719 L -99.632812 500.691406 C -98.933594 501.570312 -98.933594 501.570312 -98.097656 502.824219 L -97.261719 502.824219 L -96.9375 503.539062 C -96.355469 504.625 -95.664062 505.503906 -94.882812 506.457031 C -93.757812 507.835938 -92.652344 509.230469 -91.5625 510.636719 C -90.503906 512.007812 -89.402344 513.324219 -88.261719 514.628906 C -87.339844 515.734375 -86.507812 516.90625 -85.675781 518.085938 L -85.132812 518.714844 L -84.296875 518.714844 L -84.015625 519.59375 C -83.332031 521.089844 -82.367188 522.222656 -81.292969 523.445312 C -81.085938 523.683594 -80.882812 523.921875 -80.667969 524.167969 C -79.308594 525.742188 -77.933594 527.304688 -76.535156 528.84375 C -75.933594 529.585938 -75.933594 529.585938 -75.394531 530.519531 C -74.414062 532.109375 -73.230469 533.507812 -72.039062 534.945312 C -70.644531 536.636719 -69.265625 538.328125 -67.964844 540.09375 C -65.671875 543.175781 -62.953125 546.289062 -59.496094 548.0625 C -56.699219 549.152344 -53.816406 549.242188 -50.84375 549.242188 L -49.664062 549.242188 C -47.359375 549.125 -45.457031 548.496094 -43.429688 547.394531 C -41.902344 546.324219 -40.878906 545.003906 -39.972656 543.386719 C -37.890625 538.722656 -38.660156 532.761719 -38.664062 527.746094 C -38.664062 526.890625 -38.664062 526.03125 -38.660156 525.175781 C -38.660156 522.867188 -38.660156 520.554688 -38.660156 518.246094 C -38.664062 515.820312 -38.660156 513.394531 -38.660156 510.972656 C -38.660156 506.902344 -38.660156 502.835938 -38.664062 498.765625 C -38.664062 494.066406 -38.664062 489.367188 -38.664062 484.667969 C -38.660156 480.628906 -38.660156 476.585938 -38.660156 472.542969 C -38.664062 470.132812 -38.664062 467.722656 -38.660156 465.3125 C -38.660156 463.046875 -38.660156 460.78125 -38.664062 458.515625 C -38.664062 457.683594 -38.664062 456.855469 -38.664062 456.023438 C -38.664062 454.890625 -38.664062 453.753906 -38.664062 452.617188 L -38.664062 451.632812 C -38.644531 448.347656 -38.644531 448.347656 -39.136719 445.117188 C -40.25 443.898438 -41.195312 443.222656 -42.699219 442.5625 C -44.722656 442.046875 -46.652344 442.054688 -48.726562 442.058594 L -49.949219 442.039062 C -51.714844 442.039062 -53.335938 442.066406 -55.003906 442.695312 C -56.402344 443.515625 -57.054688 444.195312 -57.953125 445.535156 C -58.207031 446.683594 -58.207031 446.683594 -58.183594 447.921875 L -58.210938 449.367188 L -58.214844 450.9375 L -58.238281 452.605469 C -58.257812 454.109375 -58.269531 455.617188 -58.277344 457.125 C -58.289062 458.710938 -58.3125 460.296875 -58.332031 461.882812 C -58.367188 464.894531 -58.398438 467.902344 -58.421875 470.914062 C -58.460938 475.304688 -58.511719 479.695312 -58.5625 484.082031 L -58.582031 486.046875 L -58.59375 487.015625 C -58.613281 488.894531 -58.632812 490.769531 -58.648438 492.648438 C -58.742188 503.175781 -58.742188 503.175781 -58.929688 508.207031 L -58.957031 509.238281 C -59 510.164062 -59 510.164062 -59.207031 511.605469 L -60.460938 512.441406 C -62.441406 510.898438 -63.953125 509.304688 -65.371094 507.230469 L -65.898438 506.585938 L -66.734375 506.585938 L -67.074219 505.648438 C -67.550781 504.542969 -68.027344 503.722656 -68.824219 502.824219 L -69.664062 502.824219 L -69.984375 502.109375 C -70.566406 501.023438 -71.257812 500.144531 -72.039062 499.191406 C -73.117188 497.867188 -74.1875 496.542969 -75.230469 495.191406 C -76.503906 493.550781 -77.785156 491.914062 -79.070312 490.277344 C -80.359375 488.644531 -81.636719 487.007812 -82.914062 485.367188 C -84.230469 483.664062 -85.578125 481.988281 -86.933594 480.3125 C -87.644531 479.40625 -87.644531 479.40625 -88.480469 478.152344 L -89.316406 478.152344 C -89.414062 477.855469 -89.511719 477.5625 -89.613281 477.253906 C -90.253906 475.839844 -91.074219 474.859375 -92.085938 473.683594 C -92.46875 473.238281 -92.847656 472.789062 -93.226562 472.34375 L -93.800781 471.675781 C -96.140625 468.910156 -98.339844 466.023438 -100.578125 463.171875 C -103.136719 459.914062 -105.738281 456.683594 -108.375 453.484375 C -109.109375 452.570312 -109.832031 451.652344 -110.546875 450.722656 C -113.386719 446.957031 -113.386719 446.957031 -116.914062 443.863281 C -121.1875 442.246094 -125.726562 442.089844 -130.242188 442.007812 L -131.480469 441.964844 C -133.773438 441.949219 -135.667969 442.132812 -137.550781 443.542969 M -85.945312 78.726562 L -84.984375 78.726562 C -71.964844 78.734375 -71.964844 78.734375 -67.988281 80.058594 C -66.695312 80.1875 -65.402344 80.273438 -64.105469 80.359375 C -62.972656 80.476562 -62.972656 80.476562 -62.136719 80.898438 L -60.542969 81.027344 C -58.378906 81.246094 -56.421875 81.882812 -54.359375 82.554688 C -52.960938 82.980469 -51.570312 83.308594 -50.140625 83.613281 C -48.152344 84.058594 -46.34375 84.632812 -44.476562 85.433594 C -43.324219 85.914062 -42.15625 86.335938 -40.980469 86.757812 C -37.410156 88.046875 -34.058594 89.628906 -30.691406 91.382812 C -29.632812 91.925781 -28.554688 92.433594 -27.480469 92.945312 C -22.308594 95.535156 -17.371094 98.699219 -12.792969 102.222656 L -11.824219 102.960938 C -9.792969 104.527344 -7.792969 106.132812 -5.792969 107.742188 C -5.171875 108.238281 -4.535156 108.710938 -3.886719 109.167969 L -3.175781 109.75 L -3.175781 110.585938 L -2.421875 110.925781 C -1.5 111.425781 -0.890625 111.925781 -0.148438 112.664062 L 0.578125 113.386719 L 1.320312 114.140625 L 2.082031 114.894531 L 2.804688 115.617188 L 3.460938 116.277344 L 3.933594 116.859375 L 3.933594 117.695312 L 4.769531 117.695312 L 4.769531 118.53125 L 5.605469 118.53125 C 6.382812 119.441406 7.132812 120.375 7.855469 121.328125 L 9.066406 122.902344 L 9.660156 123.671875 C 10.125 124.277344 10.597656 124.878906 11.078125 125.472656 C 14.832031 130.167969 18.277344 134.957031 21.078125 140.277344 C 21.453125 140.957031 21.824219 141.636719 22.203125 142.316406 L 22.714844 143.238281 C 23.074219 143.871094 23.457031 144.496094 23.847656 145.109375 C 24.492188 146.25 24.898438 147.398438 25.335938 148.625 C 25.761719 149.683594 26.355469 150.621094 26.945312 151.59375 C 27.597656 152.886719 27.941406 154.253906 28.308594 155.648438 C 28.589844 156.6875 28.589844 156.6875 29.441406 157.839844 C 29.65625 158.609375 29.84375 159.386719 30.015625 160.164062 C 30.402344 161.792969 30.839844 163.269531 31.535156 164.789062 C 32.617188 167.339844 32.925781 170.019531 33.328125 172.738281 C 33.59375 174.5 34.007812 176.1875 34.460938 177.910156 C 36.089844 184.578125 36.210938 191.320312 36.210938 198.140625 L 36.210938 199.191406 C 36.210938 200.195312 36.210938 201.199219 36.203125 202.199219 L 36.203125 203.117188 C 36.1875 204.667969 36.058594 206.089844 35.714844 207.601562 C 35.664062 208.515625 35.621094 209.429688 35.585938 210.34375 C 35.402344 213.382812 34.882812 216.277344 34.234375 219.25 C 33.867188 220.949219 33.5625 222.613281 33.386719 224.34375 L 33.207031 226 L 32.789062 226.417969 C 32.648438 227.03125 32.53125 227.652344 32.417969 228.269531 C 31.988281 230.503906 31.40625 232.65625 30.75 234.832031 L 30.441406 235.898438 C 29.839844 237.90625 29.109375 239.722656 28.136719 241.578125 C 27.675781 242.492188 27.398438 243.410156 27.140625 244.398438 C 26.585938 246.359375 25.792969 248.039062 24.84375 249.835938 C 24.441406 250.652344 24.039062 251.472656 23.640625 252.292969 C 22.660156 254.253906 21.59375 256.132812 20.441406 258.003906 C 19.824219 259.035156 19.277344 260.082031 18.726562 261.152344 C 15.96875 266.257812 12.296875 270.945312 8.535156 275.34375 L 7.925781 276.058594 C 6.664062 277.539062 5.398438 279.015625 4.128906 280.488281 C 3.703125 280.980469 3.277344 281.476562 2.859375 281.976562 C 1.804688 283.226562 0.78125 284.414062 -0.484375 285.457031 C -1.535156 286.347656 -2.566406 287.261719 -3.570312 288.203125 C -10.8125 295.039062 -19.035156 300.808594 -27.847656 305.449219 C -28.355469 305.730469 -28.867188 306.007812 -29.378906 306.289062 L -31.007812 307.175781 L -31.753906 307.585938 C -33.535156 308.546875 -35.355469 309.316406 -37.238281 310.050781 C -38.242188 310.445312 -39.234375 310.855469 -40.230469 311.277344 C -45.210938 313.347656 -50.226562 314.964844 -55.445312 316.324219 L -56.601562 316.632812 C -59.941406 317.5 -63.300781 318.167969 -66.710938 318.699219 C -67.003906 318.746094 -67.300781 318.792969 -67.605469 318.839844 C -73.285156 319.695312 -78.925781 319.863281 -84.664062 319.851562 L -85.886719 319.851562 C -89.804688 319.84375 -93.648438 319.816406 -97.503906 319.027344 C -98.609375 318.8125 -99.695312 318.710938 -100.816406 318.621094 C -104.546875 318.3125 -108.164062 317.621094 -111.78125 316.675781 C -112.789062 316.417969 -113.796875 316.167969 -114.808594 315.929688 C -117.648438 315.253906 -120.382812 314.523438 -123.070312 313.363281 C -124.054688 312.964844 -125.035156 312.679688 -126.0625 312.402344 C -128.175781 311.796875 -130.039062 310.847656 -131.984375 309.835938 C -133.464844 309.09375 -134.980469 308.5 -136.523438 307.902344 C -137.585938 307.46875 -138.519531 306.894531 -139.496094 306.285156 L -140.777344 305.765625 C -144.242188 304.316406 -147.414062 302.1875 -150.453125 300 C -151.382812 299.347656 -152.324219 298.710938 -153.277344 298.09375 L -154.148438 297.523438 C -154.722656 297.148438 -155.300781 296.777344 -155.878906 296.410156 C -156.566406 295.960938 -157.230469 295.480469 -157.894531 294.996094 L -157.894531 294.160156 L -158.582031 293.863281 C -163.171875 291.355469 -166.921875 286.894531 -170.597656 283.234375 L -171.25 282.589844 C -173.960938 279.898438 -176.488281 277.136719 -178.804688 274.089844 L -179.367188 273.359375 C -182.492188 269.289062 -185.417969 265.144531 -188.003906 260.707031 L -188.738281 259.460938 C -189.472656 258.207031 -190.203125 256.949219 -190.929688 255.6875 L -191.519531 254.679688 C -192.609375 252.792969 -193.484375 250.890625 -194.261719 248.855469 C -194.726562 247.65625 -195.230469 246.472656 -195.738281 245.289062 C -196.78125 242.800781 -197.632812 240.273438 -198.457031 237.707031 C -198.675781 237.054688 -198.890625 236.402344 -199.109375 235.75 L -199.394531 234.894531 C -199.59375 234.300781 -199.796875 233.707031 -200.007812 233.117188 C -200.90625 230.550781 -201.5 227.957031 -202.039062 225.292969 L -202.3125 223.9375 C -204.136719 214.851562 -204.808594 205.699219 -204.808594 196.441406 L -204.808594 194.769531 C -204.792969 192.304688 -204.679688 189.96875 -204.3125 187.527344 C -204.265625 186.714844 -204.222656 185.898438 -204.191406 185.082031 C -204.035156 181.203125 -203.4375 177.523438 -202.640625 173.730469 L -202.167969 171.246094 C -202.058594 170.675781 -201.941406 170.109375 -201.800781 169.546875 L -201.382812 169.128906 C -201.1875 168.164062 -201.007812 167.199219 -200.835938 166.226562 C -200.402344 163.933594 -199.832031 161.855469 -198.890625 159.707031 C -198.390625 158.519531 -197.992188 157.3125 -197.59375 156.085938 C -196.992188 154.246094 -196.3125 152.5 -195.53125 150.730469 L -195.03125 149.265625 C -194.078125 146.679688 -192.667969 144.289062 -191.347656 141.875 C -190.972656 141.191406 -190.605469 140.503906 -190.242188 139.816406 C -188.929688 137.355469 -187.5 135.039062 -185.914062 132.75 L -185.019531 131.4375 C -183.402344 129.070312 -181.753906 126.734375 -179.964844 124.492188 C -179.488281 123.890625 -179.019531 123.285156 -178.554688 122.671875 C -176.859375 120.449219 -175.0625 118.382812 -173.132812 116.363281 L -172.253906 115.4375 C -171.371094 114.515625 -170.488281 113.59375 -169.605469 112.675781 L -168.820312 111.855469 C -165.410156 108.300781 -161.875 105.125 -157.894531 102.222656 L -156.910156 101.503906 C -153.1875 98.800781 -149.488281 96.183594 -145.378906 94.101562 C -144.195312 93.492188 -143.054688 92.835938 -141.914062 92.15625 C -139.335938 90.628906 -136.742188 89.425781 -133.910156 88.425781 C -132.734375 88.027344 -132.734375 88.027344 -131.550781 87.167969 C -130.839844 86.957031 -130.128906 86.765625 -129.40625 86.59375 C -127.910156 86.203125 -126.542969 85.773438 -125.148438 85.105469 C -122.648438 83.933594 -119.992188 83.285156 -117.332031 82.570312 L -116.355469 82.277344 C -113.277344 81.386719 -110.175781 80.832031 -107.011719 80.351562 C -106.152344 80.21875 -105.292969 80.082031 -104.433594 79.941406 C -98.289062 78.976562 -92.160156 78.71875 -85.945312 78.726562 M -96.367188 105.375 C -97.414062 105.601562 -98.441406 105.695312 -99.507812 105.75 C -101.578125 105.917969 -103.492188 106.335938 -105.496094 106.871094 C -106.503906 107.140625 -107.519531 107.394531 -108.539062 107.636719 C -111.722656 108.390625 -114.75 109.261719 -117.75 110.585938 L -119.234375 111.203125 C -122.003906 112.332031 -122.003906 112.332031 -124.644531 113.71875 C -125.695312 114.347656 -125.695312 114.347656 -127.089844 114.941406 C -134.773438 118.257812 -142.246094 123.59375 -148.226562 129.398438 C -149.113281 130.238281 -149.113281 130.238281 -149.949219 130.65625 L -149.949219 131.496094 L -150.640625 131.746094 C -152.035156 132.574219 -152.953125 133.761719 -153.976562 134.996094 L -154.640625 135.789062 C -155.089844 136.328125 -155.539062 136.863281 -155.988281 137.40625 C -156.585938 138.121094 -157.1875 138.832031 -157.796875 139.539062 C -160.828125 143.113281 -163.457031 146.703125 -165.644531 150.851562 C -166.230469 151.9375 -166.859375 152.976562 -167.511719 154.023438 C -168.988281 156.449219 -170.128906 159.007812 -171.277344 161.601562 L -171.957031 163.09375 C -172.804688 165.210938 -173.496094 167.378906 -174.203125 169.546875 L -174.496094 170.371094 C -176.839844 177.054688 -177.898438 184.226562 -177.96875 191.292969 L -177.984375 192.324219 C -178.675781 204.847656 -178.675781 204.847656 -175.875 216.800781 L -175.769531 218.289062 C -175.566406 220.320312 -175.039062 222.21875 -174.464844 224.171875 L -174.199219 225.078125 C -173.625 226.980469 -172.898438 228.769531 -172.113281 230.597656 C -171.867188 231.421875 -171.628906 232.25 -171.40625 233.082031 C -170.46875 236.222656 -169.03125 239.03125 -167.515625 241.917969 C -167.078125 242.761719 -166.652344 243.605469 -166.230469 244.457031 C -162.914062 251.105469 -158.421875 256.8125 -153.542969 262.386719 C -152.847656 263.183594 -152.175781 264.003906 -151.53125 264.84375 L -150.785156 265.726562 L -149.949219 265.726562 L -149.949219 266.5625 C -149.230469 267.222656 -148.488281 267.859375 -147.726562 268.46875 L -146.480469 269.488281 C -145.394531 270.382812 -145.394531 270.382812 -144.09375 270.742188 L -144.09375 271.578125 C -143.28125 272.277344 -142.46875 272.925781 -141.613281 273.566406 L -140.863281 274.132812 C -138.253906 276.09375 -135.59375 277.925781 -132.734375 279.507812 C -132.195312 279.816406 -131.664062 280.136719 -131.136719 280.46875 C -125.808594 283.828125 -120.011719 286.289062 -114.050781 288.265625 C -112.734375 288.722656 -112.734375 288.722656 -112.316406 289.140625 L -110.980469 289.324219 C -109.507812 289.542969 -108.277344 289.902344 -106.878906 290.398438 C -99.023438 292.863281 -90.78125 292.984375 -82.625 292.984375 L -81.539062 292.984375 C -80.507812 292.984375 -79.476562 292.980469 -78.445312 292.976562 L -77.496094 292.972656 C -76.074219 292.960938 -74.789062 292.898438 -73.425781 292.488281 C -72.625 292.433594 -71.824219 292.394531 -71.019531 292.355469 C -67.976562 292.136719 -65.144531 291.441406 -62.21875 290.640625 C -61.257812 290.386719 -60.292969 290.144531 -59.328125 289.910156 C -51.445312 287.957031 -44.09375 284.835938 -37.195312 280.539062 C -36.121094 279.890625 -35.023438 279.316406 -33.910156 278.742188 C -31.894531 277.652344 -30.175781 276.378906 -28.421875 274.914062 C -27.535156 274.175781 -26.628906 273.492188 -25.703125 272.808594 C -22.597656 270.410156 -19.796875 267.609375 -16.972656 264.890625 L -16.253906 264.226562 L -15.71875 263.632812 L -15.71875 262.796875 L -14.882812 262.796875 C -14.257812 262.101562 -13.65625 261.390625 -13.078125 260.65625 L -12.058594 259.378906 L -11.121094 258.199219 C -10.730469 257.742188 -10.335938 257.289062 -9.941406 256.839844 C -9.265625 255.996094 -8.664062 255.097656 -8.140625 254.148438 C -7.355469 252.761719 -7.355469 252.761719 -6.738281 252.152344 C -6.023438 251.429688 -5.628906 250.734375 -5.160156 249.835938 C -4.371094 248.363281 -3.515625 246.96875 -2.597656 245.574219 C 0.351562 240.960938 2.335938 236.183594 4.0625 231.023438 C 4.460938 229.863281 4.894531 228.722656 5.328125 227.578125 C 6.351562 224.863281 7.148438 222.15625 7.699219 219.308594 L 7.890625 218.308594 C 8.128906 216.972656 8.332031 215.632812 8.535156 214.289062 L 8.691406 213.273438 C 10.285156 202.910156 10.140625 192.859375 8.535156 182.511719 L 8.308594 180.933594 C 7.894531 178.1875 7.214844 175.558594 6.445312 172.894531 L 6.078125 171.496094 C 5.265625 168.4375 4.214844 165.660156 2.835938 162.8125 C 2.378906 161.855469 1.980469 160.878906 1.632812 159.878906 C 0.828125 157.675781 -0.320312 155.675781 -1.5 153.65625 C -1.6875 153.339844 -1.871094 153.027344 -2.0625 152.699219 C -4.949219 147.796875 -8.023438 143.21875 -11.746094 138.914062 C -12.191406 138.398438 -12.628906 137.875 -13.058594 137.351562 L -13.734375 136.535156 L -14.339844 135.792969 L -14.882812 135.257812 L -15.71875 135.257812 L -16.046875 134.519531 C -17.636719 131.601562 -20.773438 129.464844 -23.316406 127.425781 C -24.070312 126.820312 -24.816406 126.207031 -25.554688 125.578125 C -30.324219 121.523438 -35.640625 118.007812 -41.226562 115.1875 L -42.386719 114.570312 C -45.539062 112.921875 -48.785156 111.664062 -52.125 110.460938 C -52.953125 110.160156 -53.78125 109.851562 -54.601562 109.535156 C -59.726562 107.609375 -64.894531 106.019531 -70.378906 105.710938 C -71.523438 105.59375 -72.5625 105.398438 -73.679688 105.148438 C -75.789062 104.71875 -77.796875 104.609375 -79.945312 104.621094 C -80.3125 104.621094 -80.675781 104.621094 -81.050781 104.617188 C -81.816406 104.617188 -82.582031 104.621094 -83.34375 104.621094 C -84.503906 104.628906 -85.664062 104.621094 -86.820312 104.617188 C -87.570312 104.617188 -88.320312 104.617188 -89.066406 104.621094 L -90.097656 104.617188 C -92.257812 104.632812 -94.257812 104.90625 -96.367188 105.375 M -439.914062 84.625 C -433.285156 87.058594 -428.273438 91.496094 -423.214844 96.265625 C -422.25 97.171875 -421.261719 98.054688 -420.25 98.910156 C -417.671875 101.152344 -415.300781 103.617188 -412.898438 106.039062 L -411.425781 107.515625 C -410.523438 108.421875 -409.621094 109.328125 -408.722656 110.234375 C -407.957031 111 -407.195312 111.765625 -406.429688 112.53125 C -405.617188 113.347656 -404.804688 114.164062 -403.992188 114.984375 C -403.476562 115.503906 -402.960938 116.023438 -402.441406 116.546875 L -401.644531 117.351562 L -400.882812 118.121094 L -400.191406 118.816406 C -399.601562 119.414062 -399.601562 119.414062 -398.757812 119.785156 L -398.757812 120.621094 L -397.921875 120.621094 L -397.921875 121.457031 L -397.085938 121.457031 C -396.527344 122.023438 -396.527344 122.023438 -395.863281 122.832031 C -393.847656 125.199219 -391.644531 127.371094 -389.445312 129.566406 L -388.03125 130.976562 C -386.761719 132.246094 -385.492188 133.515625 -384.21875 134.785156 C -382.886719 136.117188 -381.550781 137.449219 -380.21875 138.78125 C -377.695312 141.304688 -375.171875 143.824219 -372.648438 146.34375 C -369.78125 149.207031 -366.914062 152.070312 -364.046875 154.933594 C -358.394531 160.589844 -352.734375 166.242188 -347.070312 171.894531 C -346.363281 172.597656 -345.660156 173.300781 -344.957031 174.003906 C -344.296875 174.667969 -343.628906 175.328125 -342.960938 175.984375 L -341.941406 176.996094 L -340.921875 177.996094 C -340.085938 178.863281 -339.277344 179.757812 -338.496094 180.675781 C -336.789062 182.632812 -334.964844 184.460938 -333.121094 186.285156 L -332.054688 187.347656 C -330.941406 188.453125 -329.828125 189.558594 -328.714844 190.664062 C -327.246094 192.121094 -325.777344 193.582031 -324.3125 195.042969 L -323.304688 196.039062 C -321.542969 197.792969 -319.855469 199.574219 -318.242188 201.464844 C -317.390625 202.445312 -316.472656 203.347656 -315.542969 204.253906 C -314.976562 204.820312 -314.410156 205.386719 -313.84375 205.953125 L -310.523438 209.273438 L -309.269531 208.855469 L -309.359375 207.769531 C -309.757812 202.316406 -309.757812 196.871094 -309.761719 191.40625 L -309.769531 188.183594 C -309.78125 184.984375 -309.785156 181.785156 -309.789062 178.582031 L -309.792969 174.957031 C -309.800781 168.324219 -309.808594 161.691406 -309.8125 155.058594 L -309.8125 154.078125 C -309.816406 148.835938 -309.828125 143.59375 -309.839844 138.351562 C -309.855469 132.953125 -309.863281 127.558594 -309.863281 122.164062 C -309.863281 119.136719 -309.867188 116.113281 -309.878906 113.089844 C -309.886719 110.246094 -309.890625 107.40625 -309.886719 104.566406 C -309.886719 103.523438 -309.886719 102.484375 -309.894531 101.441406 C -309.902344 100.019531 -309.898438 98.59375 -309.894531 97.171875 L -309.90625 95.925781 C -309.882812 93.242188 -309.363281 91.175781 -308.015625 88.839844 C -306.667969 87.105469 -305.21875 86.304688 -303.246094 85.453125 C -301.382812 84.808594 -299.515625 84.683594 -297.5625 84.554688 L -296.378906 84.457031 C -287.234375 83.742188 -287.234375 83.742188 -283.191406 85.511719 C -281.332031 86.601562 -279.941406 87.867188 -278.746094 89.679688 C -277.355469 92.953125 -277.308594 96.179688 -277.324219 99.691406 C -277.320312 100.273438 -277.316406 100.855469 -277.316406 101.441406 C -277.308594 103.03125 -277.308594 104.625 -277.308594 106.214844 C -277.308594 107.9375 -277.300781 109.660156 -277.296875 111.378906 C -277.285156 114.363281 -277.28125 117.34375 -277.28125 120.324219 C -277.277344 124.652344 -277.265625 128.976562 -277.257812 133.300781 C -277.238281 140.335938 -277.226562 147.371094 -277.214844 154.410156 C -277.207031 161.210938 -277.195312 168.011719 -277.179688 174.8125 L -277.179688 176.078125 L -277.164062 182.371094 C -277.121094 200.988281 -277.089844 219.601562 -277.070312 238.214844 C -277.066406 239.921875 -277.066406 241.625 -277.0625 243.332031 L -277.0625 244.859375 C -277.058594 247.816406 -277.097656 250.773438 -277.175781 253.730469 L -277.203125 254.746094 C -277.289062 257.109375 -278.007812 259.070312 -279.164062 261.125 C -280.796875 263.011719 -282.707031 264.726562 -285.015625 265.726562 C -286.265625 265.914062 -287.515625 265.902344 -288.78125 265.910156 L -289.847656 265.914062 C -292.9375 265.855469 -295.265625 265.152344 -297.980469 263.632812 L -297.980469 262.796875 L -298.730469 262.65625 C -302.628906 261.484375 -306.347656 256.132812 -309.164062 253.285156 C -310.25 252.1875 -311.339844 251.09375 -312.425781 249.996094 L -313.171875 249.242188 C -314.128906 248.28125 -315.039062 247.390625 -316.128906 246.585938 L -316.796875 246.070312 L -316.796875 245.234375 L -317.632812 245.234375 C -318.804688 244.160156 -319.84375 243.015625 -320.847656 241.785156 C -321.691406 240.628906 -321.691406 240.628906 -322.652344 240.21875 L -322.652344 239.378906 L -323.90625 238.960938 L -323.90625 238.125 L -325.578125 237.289062 L -325.578125 236.453125 L -326.414062 236.453125 C -327.09375 235.878906 -327.09375 235.878906 -327.667969 235.199219 L -327.667969 234.363281 L -328.507812 234.363281 C -329.605469 233.371094 -329.605469 233.371094 -330.597656 232.273438 L -330.597656 231.4375 L -331.355469 231.097656 C -332.269531 230.597656 -332.859375 230.140625 -333.523438 229.34375 L -333.523438 228.507812 L -334.359375 228.507812 L -334.359375 227.671875 L -335.117188 227.332031 C -336.03125 226.835938 -336.625 226.378906 -337.289062 225.582031 L -337.289062 224.746094 L -337.96875 224.484375 C -339.34375 223.6875 -340.464844 222.632812 -341.46875 221.398438 L -341.46875 220.5625 L -342.304688 220.5625 L -342.304688 219.726562 L -343.117188 219.386719 L -343.976562 218.890625 L -344.394531 217.636719 C -345.234375 217.128906 -345.234375 217.128906 -346.070312 216.800781 L -346.070312 215.964844 L -346.75 215.703125 C -348.125 214.90625 -349.246094 213.851562 -350.25 212.617188 L -350.25 211.78125 L -350.984375 211.476562 C -352.101562 210.84375 -352.742188 210.121094 -353.570312 209.140625 C -354.777344 207.726562 -356.039062 206.402344 -357.359375 205.089844 L -360.6875 201.757812 L -361.351562 201.09375 C -366.386719 196.050781 -371.421875 191.007812 -376.460938 185.96875 C -379.371094 183.050781 -382.28125 180.136719 -385.195312 177.226562 C -387.734375 174.679688 -390.277344 172.132812 -392.824219 169.589844 C -394.167969 168.242188 -395.515625 166.894531 -396.859375 165.546875 C -398.121094 164.28125 -399.382812 163.019531 -400.648438 161.753906 L -402.042969 160.359375 C -402.671875 159.726562 -403.304688 159.09375 -403.9375 158.460938 L -405.011719 157.386719 C -405.804688 156.566406 -405.804688 156.566406 -406.703125 156.167969 L -406.703125 154.910156 L -407.421875 154.605469 C -408.5625 153.972656 -409.320312 153.222656 -410.234375 152.292969 L -411.339844 151.175781 L -411.921875 150.578125 C -412.527344 149.964844 -413.132812 149.347656 -413.742188 148.734375 C -415.46875 146.988281 -417.191406 145.242188 -418.910156 143.492188 C -419.964844 142.417969 -421.023438 141.351562 -422.082031 140.285156 C -422.484375 139.875 -422.886719 139.46875 -423.285156 139.058594 C -423.84375 138.488281 -424.40625 137.917969 -424.96875 137.351562 L -425.9375 136.367188 L -426.773438 135.675781 L -428.027344 135.675781 L -427.992188 136.925781 C -427.660156 148.601562 -427.527344 160.277344 -427.484375 171.960938 C -427.472656 174.394531 -427.464844 176.828125 -427.453125 179.265625 C -427.433594 183.378906 -427.417969 187.492188 -427.402344 191.605469 C -427.382812 195.71875 -427.367188 199.832031 -427.347656 203.941406 C -427.296875 215.039062 -427.253906 226.136719 -427.222656 237.234375 C -427.207031 242.503906 -427.1875 247.773438 -427.164062 253.042969 C -427.144531 257.90625 -427.128906 262.769531 -427.117188 267.632812 C -427.109375 270.1875 -427.101562 272.742188 -427.085938 275.296875 C -427.074219 277.667969 -427.066406 280.039062 -427.066406 282.410156 C -427.066406 283.273438 -427.0625 284.140625 -427.054688 285.007812 C -427.046875 286.191406 -427.046875 287.375 -427.046875 288.5625 L -427.035156 289.589844 C -427.050781 292.089844 -427.539062 294.332031 -428.445312 296.667969 C -429.382812 298.085938 -430.359375 299.101562 -431.792969 300.015625 C -436.46875 302.078125 -441.757812 301.96875 -446.757812 301.558594 C -449.539062 301.222656 -452.058594 300.832031 -454.375 299.179688 C -455.636719 298.152344 -456.628906 297.21875 -457.316406 295.726562 C -458.882812 291.257812 -458.226562 285.582031 -458.265625 280.878906 L -458.292969 278.339844 C -458.316406 275.992188 -458.335938 273.648438 -458.355469 271.304688 C -458.367188 269.785156 -458.378906 268.265625 -458.394531 266.746094 C -458.648438 236.632812 -458.632812 206.519531 -458.632812 176.40625 C -458.632812 169.828125 -458.636719 163.25 -458.640625 156.675781 C -458.648438 149.816406 -458.652344 142.957031 -458.648438 136.101562 C -458.648438 132.289062 -458.652344 128.480469 -458.65625 124.671875 C -458.660156 121.460938 -458.660156 118.25 -458.660156 115.042969 C -458.65625 113.414062 -458.65625 111.785156 -458.660156 110.15625 C -458.695312 93.800781 -458.695312 93.800781 -457.082031 90.445312 C -456.027344 88.742188 -454.808594 87.476562 -453.144531 86.359375 C -452.585938 86.058594 -452.019531 85.773438 -451.445312 85.496094 L -449.984375 84.738281 C -446.835938 83.667969 -443.105469 83.808594 -439.914062 84.625 M 172.035156 132.75 L 173.316406 133.082031 C 176.925781 134.089844 180.117188 135.648438 183.414062 137.382812 C 184.394531 137.886719 185.390625 138.347656 186.386719 138.8125 C 189.550781 140.390625 192.292969 142.667969 195.035156 144.875 L 195.777344 145.457031 C 197.792969 147.09375 199.460938 148.976562 200.890625 151.148438 L 200.890625 151.984375 L 201.726562 151.984375 C 202.230469 152.609375 202.230469 152.609375 202.789062 153.488281 L 203.414062 154.46875 L 204.078125 155.539062 L 204.761719 156.632812 C 206.601562 159.609375 208.179688 162.664062 209.695312 165.816406 C 210.367188 167.183594 211.089844 168.519531 211.8125 169.859375 C 212.792969 171.675781 213.75 173.5 214.664062 175.347656 C 216.128906 178.308594 217.679688 181.21875 219.234375 184.132812 C 219.683594 184.972656 220.128906 185.816406 220.574219 186.664062 C 221.914062 189.199219 223.285156 191.710938 224.726562 194.191406 C 226.074219 196.523438 227.296875 198.898438 228.488281 201.3125 C 229.578125 203.519531 230.722656 205.695312 231.890625 207.863281 C 232.757812 209.476562 233.589844 211.105469 234.394531 212.75 C 235.351562 214.683594 236.410156 216.519531 237.539062 218.355469 C 238.027344 219.175781 238.476562 220.015625 238.890625 220.878906 C 239.652344 222.453125 240.519531 223.960938 241.398438 225.476562 C 242.453125 227.296875 243.453125 229.125 244.378906 231.015625 C 245.394531 233.09375 246.519531 235.085938 247.679688 237.085938 C 248.898438 239.195312 249.992188 241.359375 251.066406 243.546875 C 252.027344 245.484375 253.019531 247.40625 254.046875 249.3125 C 255.6875 252.355469 257.238281 255.433594 258.753906 258.542969 C 259.421875 259.851562 260.132812 261.128906 260.859375 262.40625 C 262.625 265.519531 264.253906 268.660156 265.742188 271.914062 C 266.667969 273.914062 267.660156 275.863281 268.710938 277.800781 C 272.636719 285.109375 272.636719 285.109375 272.589844 288.644531 C 272.394531 289.558594 272.394531 289.558594 271.886719 290.464844 C 270.96875 291.410156 270.308594 291.671875 269.050781 292.070312 C 267.625 292.179688 267.625 292.179688 265.972656 292.183594 L 265.058594 292.191406 C 264.0625 292.195312 263.070312 292.195312 262.074219 292.195312 L 259.992188 292.199219 C 258.539062 292.203125 257.085938 292.203125 255.632812 292.203125 C 253.773438 292.199219 251.914062 292.207031 250.054688 292.214844 C 248.621094 292.222656 247.1875 292.222656 245.753906 292.222656 C 245.066406 292.222656 244.382812 292.222656 243.699219 292.226562 C 242.738281 292.234375 241.777344 292.230469 240.820312 292.226562 L 239.167969 292.226562 C 237.5625 292.054688 236.558594 291.632812 235.179688 290.816406 C 231.992188 288.222656 230.117188 284.964844 228.351562 281.328125 C 227.609375 279.859375 226.804688 278.4375 225.980469 277.015625 C 224.714844 274.835938 223.5625 272.621094 222.453125 270.359375 C 221.574219 268.632812 220.609375 266.960938 219.636719 265.285156 C 218.609375 263.511719 217.683594 261.710938 216.78125 259.871094 L 216.101562 258.746094 C 215.527344 257.78125 215.527344 257.78125 215.207031 256.914062 C 214.3125 254.792969 213.101562 252.835938 211.953125 250.847656 L 211.394531 249.859375 L 210.878906 248.960938 C 210.507812 248.164062 210.507812 248.164062 210.507812 246.90625 L 209.671875 246.90625 L 209.164062 245.660156 C 208.398438 243.878906 207.464844 242.214844 206.507812 240.53125 C 204.460938 236.882812 202.503906 233.195312 200.566406 229.488281 C 197.195312 222.925781 197.195312 222.925781 193.519531 216.539062 C 192.945312 215.546875 192.945312 215.546875 192.410156 214.265625 C 191.597656 212.351562 190.625 210.53125 189.652344 208.699219 L 189.117188 207.683594 C 188.074219 205.714844 187.007812 203.757812 185.921875 201.8125 C 185.144531 200.417969 184.375 199.019531 183.613281 197.617188 L 183.160156 196.792969 C 182.074219 194.78125 182.074219 194.78125 182.074219 193.382812 L 181.234375 193.382812 L 180.765625 192.179688 C 180.042969 190.492188 179.101562 188.976562 178.136719 187.414062 C 177.457031 186.25 176.890625 185.066406 176.324219 183.84375 C 175.199219 181.527344 173.792969 179.59375 172.179688 177.609375 C 171.351562 176.585938 170.785156 175.824219 170.363281 174.566406 C 169.671875 174.277344 168.972656 174 168.273438 173.730469 L 167.335938 172.9375 C 165.0625 171.199219 162.277344 170.460938 159.492188 169.964844 C 155.367188 169.523438 150.898438 169.328125 146.972656 170.828125 C 144.195312 172.265625 142.015625 174.082031 140.308594 176.707031 C 138.941406 179.007812 138.453125 180.996094 138.410156 183.667969 L 138.386719 184.644531 C 138.359375 185.71875 138.339844 186.792969 138.320312 187.867188 L 138.273438 190.171875 C 138.113281 198.4375 138.128906 206.703125 138.160156 214.96875 C 138.167969 217.734375 138.175781 220.5 138.179688 223.265625 C 138.191406 231.113281 138.210938 238.960938 138.238281 246.808594 C 138.25 251.179688 138.261719 255.550781 138.265625 259.917969 C 138.269531 262.664062 138.277344 265.410156 138.289062 268.15625 C 138.296875 269.855469 138.300781 271.558594 138.300781 273.261719 C 138.300781 274.046875 138.304688 274.832031 138.308594 275.617188 C 138.339844 279.992188 138.289062 283.789062 136.34375 287.804688 C 135.394531 289.214844 134.507812 290.480469 133.070312 291.414062 C 129.046875 293.238281 124.492188 293.050781 120.167969 293.039062 C 119.140625 293.035156 118.113281 293.046875 117.082031 293.058594 C 112.84375 293.074219 108.964844 292.851562 105.128906 290.839844 C 103.703125 289.859375 103.011719 289.011719 102.1875 287.523438 C 100.980469 284.851562 101.304688 281.449219 101.3125 278.574219 L 101.3125 277.308594 C 101.308594 275.921875 101.3125 274.53125 101.3125 273.144531 L 101.308594 270.148438 C 101.308594 267.71875 101.308594 265.292969 101.308594 262.863281 C 101.3125 260.886719 101.3125 258.914062 101.3125 256.9375 L 101.3125 256.082031 L 101.308594 254.363281 C 101.308594 249 101.308594 243.632812 101.3125 238.265625 C 101.3125 233.671875 101.3125 229.082031 101.3125 224.488281 C 101.308594 218.574219 101.308594 212.660156 101.3125 206.742188 L 101.3125 205.890625 C 101.3125 203.921875 101.3125 201.953125 101.308594 199.984375 C 101.308594 197.324219 101.308594 194.667969 101.3125 192.007812 C 101.3125 191.035156 101.3125 190.066406 101.3125 189.09375 C 101.296875 174.5 101.296875 174.5 103.039062 168.710938 L 103.449219 167.28125 C 104.25 164.566406 105.140625 162.121094 106.621094 159.695312 C 107.238281 158.710938 107.238281 158.710938 107.59375 157.703125 C 110.117188 151.605469 115.421875 145.835938 120.601562 141.84375 C 122.640625 140.402344 124.742188 139.066406 126.875 137.765625 L 127.898438 137.125 C 130.382812 135.660156 132.972656 134.648438 135.683594 133.691406 L 136.730469 133.316406 C 139.132812 132.496094 141.523438 131.933594 144.019531 131.496094 L 145.460938 131.230469 C 154.246094 129.894531 163.492188 130.277344 172.035156 132.75 M 266.328125 423.769531 C 268.660156 424.691406 270.644531 425.753906 272.394531 427.554688 L 272.394531 428.390625 L 273.230469 428.390625 C 273.566406 428.957031 273.898438 429.523438 274.226562 430.089844 L 274.785156 431.046875 C 276.289062 434.140625 276.300781 436.992188 276.289062 440.386719 L 276.308594 441.792969 C 276.3125 444.628906 275.984375 447.144531 275.214844 449.875 C 274.925781 450.898438 274.703125 451.914062 274.511719 452.957031 C 274.148438 454.828125 273.714844 456.675781 273.257812 458.523438 L 273.058594 459.347656 C 272.699219 460.785156 272.289062 462.191406 271.804688 463.59375 C 270.972656 466.042969 270.335938 468.542969 269.675781 471.042969 C 268.9375 473.859375 268.183594 476.648438 267.234375 479.402344 C 266.808594 480.703125 266.492188 482.023438 266.175781 483.355469 C 265.5 486.132812 264.753906 488.886719 263.976562 491.636719 C 263.28125 494.117188 262.644531 496.613281 262.046875 499.117188 C 261.882812 499.796875 261.707031 500.476562 261.523438 501.152344 L 261.105469 501.570312 C 260.96875 502.125 260.847656 502.683594 260.738281 503.242188 C 260.460938 504.5625 260.125 505.8125 259.667969 507.085938 C 258.925781 509.210938 258.507812 511.390625 258.070312 513.597656 C 257.789062 514.824219 257.398438 515.882812 256.921875 517.042969 C 256.710938 517.839844 256.511719 518.640625 256.324219 519.445312 C 255.964844 520.917969 255.59375 522.355469 255.09375 523.785156 C 254.425781 525.714844 253.871094 527.671875 253.316406 529.640625 L 253.039062 530.609375 C 252.636719 532.0625 252.3125 533.441406 252.105469 534.941406 C 251.917969 536.195312 251.628906 536.84375 251.070312 537.949219 C 250.269531 540.542969 250.082031 543.117188 250.078125 545.816406 L 250.046875 546.871094 C 250.039062 547.828125 250.066406 548.714844 250.234375 549.660156 C 250.925781 550.738281 250.925781 550.738281 251.90625 551.332031 C 253.945312 551.890625 255.601562 551.730469 257.609375 551.210938 C 261.535156 550.027344 264.859375 548.09375 268.316406 545.933594 C 268.945312 545.542969 269.578125 545.15625 270.210938 544.773438 C 274.417969 542.175781 278.511719 539.261719 282.363281 536.15625 C 283.828125 534.996094 285.304688 534.324219 287.160156 534.035156 C 288.152344 533.976562 288.988281 533.980469 289.957031 534.1875 C 290.949219 535.128906 291.445312 535.90625 292.050781 537.113281 C 292.078125 539.957031 291.304688 542.574219 289.957031 545.058594 C 287.980469 548.140625 285.777344 551.125 283.089844 553.628906 C 282.398438 554.289062 281.792969 554.988281 281.175781 555.722656 C 279.609375 557.539062 277.925781 559.242188 276.238281 560.949219 L 275.386719 561.816406 L 274.582031 562.621094 L 273.855469 563.351562 L 273.230469 563.875 L 272.394531 563.875 L 272.394531 564.710938 C 271.78125 565.332031 271.78125 565.332031 270.933594 566.046875 L 270.109375 566.742188 L 269.050781 567.640625 L 268.316406 568.296875 C 266.292969 570.097656 264.199219 571.734375 261.992188 573.3125 L 260.988281 574.03125 C 250.238281 581.675781 250.238281 581.675781 244.742188 582.464844 C 236.523438 583.035156 236.523438 583.035156 232.589844 581.203125 C 230.265625 579.9375 228.167969 578.40625 226.398438 576.421875 L 226.398438 575.585938 L 225.5625 575.585938 C 223.292969 572.773438 222.105469 569.308594 221.527344 565.785156 C 220.734375 557.726562 221.976562 550.457031 224.199219 542.746094 C 224.714844 540.941406 225.171875 539.121094 225.613281 537.296875 C 226.097656 535.328125 226.621094 533.398438 227.296875 531.488281 C 227.8125 529.941406 228.265625 528.378906 228.722656 526.816406 L 228.988281 525.90625 C 229.890625 522.820312 230.769531 519.722656 231.625 516.625 C 232.242188 514.390625 232.867188 512.160156 233.507812 509.933594 C 233.859375 508.695312 234.203125 507.460938 234.550781 506.222656 L 234.820312 505.269531 C 235.359375 503.355469 235.828125 501.425781 236.230469 499.476562 C 236.496094 498.390625 236.917969 497.378906 237.332031 496.339844 C 237.917969 494.621094 238.316406 492.847656 238.742188 491.082031 C 239.175781 489.292969 239.699219 487.535156 240.316406 485.796875 C 240.84375 484.117188 241.1875 482.390625 241.558594 480.667969 C 241.871094 479.40625 241.871094 479.40625 242.285156 478.382812 C 242.804688 477.070312 243.074219 475.769531 243.359375 474.390625 L 243.675781 472.875 C 243.910156 471.707031 244.144531 470.539062 244.378906 469.371094 C 243.671875 469.769531 242.972656 470.191406 242.289062 470.625 L 241.871094 471.460938 L 241.035156 471.460938 L 240.75 472.152344 C 240.027344 473.433594 239.0625 474.429688 238.054688 475.488281 C 236.226562 477.429688 234.511719 479.46875 232.902344 481.597656 L 232.253906 482.335938 L 231.414062 482.335938 L 231.179688 483.195312 C 230.609375 484.363281 230.191406 484.863281 229.273438 485.730469 C 227.585938 487.324219 226.324219 489.140625 225.015625 491.046875 L 224.308594 491.953125 L 223.46875 491.953125 L 223.148438 492.664062 C 221.640625 495.476562 219.246094 497.878906 217.136719 500.257812 C 215.113281 502.589844 213.117188 504.957031 211.371094 507.503906 L 210.507812 508.679688 L 209.671875 508.679688 L 209.34375 509.398438 C 208.78125 510.453125 208.125 511.304688 207.371094 512.234375 L 206.480469 513.332031 C 205.773438 514.1875 205.066406 515.039062 204.355469 515.890625 L 203.78125 516.578125 C 203.238281 517.226562 202.691406 517.871094 202.144531 518.519531 C 201.308594 519.472656 201.308594 519.472656 200.890625 520.386719 L 200.054688 520.386719 L 199.726562 521.109375 C 198.042969 524.257812 195.292969 526.9375 192.980469 529.652344 C 189.890625 533.273438 189.890625 533.273438 187.089844 537.113281 L 186.253906 537.113281 L 185.941406 537.8125 C 185.316406 538.976562 184.566406 539.949219 183.746094 540.980469 L 182.855469 542.113281 L 182.074219 542.96875 L 181.234375 542.96875 C 181.125 543.210938 181.015625 543.457031 180.902344 543.707031 C 180.378906 544.679688 179.804688 545.390625 179.066406 546.207031 L 178.273438 547.09375 L 177.472656 547.984375 C 177 548.535156 176.53125 549.082031 176.0625 549.632812 C 173.476562 552.578125 170.917969 555.457031 167.371094 557.214844 C 164.785156 558.0625 161.765625 557.917969 159.074219 557.605469 C 156.78125 556.957031 155.023438 555.734375 153.246094 554.179688 C 151.988281 552.792969 151.332031 551.46875 150.894531 549.652344 C 150.253906 545.296875 150.574219 541.542969 151.933594 537.351562 C 152.421875 535.730469 152.726562 534.128906 153.011719 532.460938 C 153.429688 530.027344 154.066406 527.765625 154.902344 525.441406 C 155.542969 523.410156 155.894531 521.335938 156.265625 519.238281 C 156.5625 517.878906 156.5625 517.878906 156.96875 517.089844 C 157.457031 516.09375 157.679688 515.171875 157.910156 514.089844 L 158.175781 512.871094 L 158.445312 511.605469 C 158.621094 510.777344 158.800781 509.949219 158.980469 509.125 L 159.21875 508.015625 C 159.484375 507.03125 159.863281 506.238281 160.328125 505.332031 C 160.558594 504.320312 160.765625 503.300781 160.953125 502.277344 C 161.253906 500.660156 161.570312 499.101562 162.035156 497.523438 C 162.378906 496.285156 162.511719 495.34375 162.472656 494.070312 L 162.449219 493.089844 L 162.417969 492.371094 C 160.941406 492.671875 160.058594 493.222656 158.917969 494.222656 C 157.914062 495.191406 157.015625 496.230469 156.113281 497.289062 C 155.234375 498.3125 154.332031 499.316406 153.429688 500.316406 C 149.738281 504.410156 146.210938 508.535156 143.082031 513.082031 C 142.359375 514.097656 141.597656 515.058594 140.804688 516.023438 C 138.804688 518.484375 137.011719 521.082031 135.195312 523.679688 C 133.945312 525.460938 132.667969 527.222656 131.382812 528.976562 C 130.664062 529.976562 129.953125 530.980469 129.253906 531.992188 C 127.796875 534.082031 126.292969 536.132812 124.78125 538.183594 C 122.160156 541.722656 122.160156 541.722656 119.863281 545.46875 C 118.953125 546.957031 117.886719 548.332031 116.839844 549.722656 C 116.074219 550.8125 115.410156 551.921875 114.761719 553.085938 C 114.039062 554.351562 113.242188 555.570312 112.449219 556.792969 L 111.96875 557.535156 C 111.65625 558.023438 111.339844 558.507812 111.023438 558.992188 C 110.585938 559.664062 110.15625 560.339844 109.726562 561.019531 C 108.214844 563.167969 106.261719 564.957031 103.929688 566.175781 C 101.234375 566.605469 99.105469 566.789062 96.496094 565.820312 C 93.78125 564.574219 91.859375 563.34375 90.078125 560.949219 C 89.484375 559.824219 89.253906 559 89.128906 557.738281 C 89.269531 555.988281 89.921875 554.683594 90.730469 553.160156 L 91.1875 552.277344 C 92.539062 549.679688 94.007812 547.152344 95.511719 544.640625 C 95.808594 544.109375 96.105469 543.578125 96.402344 543.046875 C 97.128906 541.808594 97.921875 540.671875 98.769531 539.515625 C 99.410156 538.589844 99.953125 537.617188 100.5 536.632812 C 101.40625 535.070312 102.445312 533.59375 103.457031 532.097656 C 103.945312 531.367188 104.429688 530.640625 104.914062 529.910156 L 105.984375 528.308594 C 106.898438 526.9375 107.8125 525.5625 108.71875 524.1875 C 110.59375 521.355469 112.496094 518.574219 114.539062 515.859375 C 115.234375 514.945312 115.234375 514.945312 115.585938 513.695312 L 116.421875 513.695312 L 116.679688 512.875 C 117.492188 511.09375 118.628906 509.617188 119.792969 508.050781 C 120.285156 507.382812 120.773438 506.710938 121.265625 506.042969 L 122 505.042969 C 123.292969 503.246094 124.519531 501.40625 125.742188 499.566406 L 126.457031 498.640625 L 127.292969 498.640625 L 127.421875 497.914062 C 127.761719 496.800781 128.253906 496.167969 128.992188 495.269531 C 130.144531 493.832031 131.257812 492.375 132.335938 490.878906 C 137.121094 484.269531 142.21875 477.898438 147.414062 471.605469 C 148.242188 470.605469 148.242188 470.605469 149.039062 469.371094 L 149.875 469.371094 L 150.199219 468.636719 C 151.144531 466.902344 152.640625 465.609375 154.03125 464.222656 L 155 463.253906 C 157.960938 460.355469 160.863281 457.964844 164.925781 456.824219 C 168.5625 456.367188 172.578125 455.867188 176.046875 457.261719 C 177.925781 458.160156 179.75 459.105469 181.234375 460.589844 L 181.234375 461.84375 L 182.492188 462.261719 C 184.484375 464.902344 185.6875 467.800781 186.253906 471.042969 C 186.96875 478.785156 186.15625 486.78125 184.089844 494.269531 C 183.21875 497.910156 182.6875 501.640625 182.074219 505.332031 C 183.027344 504.925781 183.679688 504.566406 184.390625 503.800781 L 184.992188 502.980469 L 185.65625 502.085938 L 186.332031 501.152344 L 187.023438 500.21875 C 188.199219 498.652344 188.199219 498.652344 189.179688 496.96875 L 190.015625 496.96875 L 190.359375 496.238281 C 190.855469 495.292969 191.410156 494.496094 192.054688 493.652344 L 192.679688 492.828125 C 193.152344 492.222656 193.632812 491.617188 194.117188 491.019531 C 194.851562 490.09375 195.574219 489.160156 196.285156 488.21875 L 196.972656 487.3125 C 197.4375 486.699219 197.898438 486.085938 198.363281 485.472656 C 199.75 483.648438 201.195312 481.90625 202.714844 480.191406 C 203.691406 479.070312 204.574219 477.902344 205.464844 476.714844 C 206.9375 474.769531 208.5 472.894531 210.144531 471.089844 C 210.9375 470.195312 211.664062 469.273438 212.390625 468.324219 C 213.628906 466.703125 214.953125 465.1875 216.320312 463.675781 C 217.261719 462.609375 218.160156 461.511719 219.054688 460.40625 C 220.59375 458.507812 222.199219 456.679688 223.84375 454.867188 C 225.542969 452.996094 227.199219 451.089844 228.832031 449.160156 C 230.878906 446.746094 232.925781 444.394531 235.207031 442.191406 C 236.527344 440.824219 237.691406 439.335938 238.867188 437.847656 C 239.8125 436.714844 240.816406 435.695312 241.871094 434.664062 L 242.644531 433.859375 C 246.570312 429.8125 251.519531 425.140625 257.078125 423.558594 C 260.167969 423.039062 263.292969 422.945312 266.328125 423.769531 " fill-opacity="1" fill-rule="nonzero"/></g><g clip-path="url(#93f64bab1f)"><path fill="#000000" d="M -39.003906 142.628906 L -38.15625 142.714844 C -36.714844 142.910156 -35.683594 143.261719 -34.40625 143.964844 C -33.34375 144.824219 -32.765625 145.433594 -32.132812 146.625 L -31.640625 147.507812 C -30.507812 150.359375 -30.230469 153.207031 -30.246094 156.253906 L -30.242188 157.371094 C -30.238281 158.597656 -30.238281 159.824219 -30.238281 161.046875 C -30.238281 161.929688 -30.234375 162.8125 -30.234375 163.699219 C -30.226562 166.089844 -30.226562 168.480469 -30.230469 170.871094 C -30.230469 172.871094 -30.226562 174.871094 -30.226562 176.871094 C -30.222656 181.589844 -30.21875 186.304688 -30.222656 191.023438 C -30.226562 195.886719 -30.21875 200.746094 -30.210938 205.605469 C -30.203125 209.785156 -30.203125 213.964844 -30.203125 218.144531 C -30.203125 220.640625 -30.203125 223.132812 -30.195312 225.628906 C -30.191406 227.972656 -30.191406 230.320312 -30.199219 232.664062 C -30.199219 233.523438 -30.199219 234.382812 -30.195312 235.238281 C -30.160156 244.164062 -30.160156 244.164062 -31.609375 247.324219 C -32.800781 249.070312 -34.015625 250.332031 -35.792969 251.480469 C -38.492188 252.4375 -41.3125 252.527344 -44.15625 252.34375 C -47.609375 251.59375 -50.234375 249.949219 -52.9375 247.742188 C -54.183594 246.585938 -55.378906 245.382812 -56.570312 244.164062 L -57.496094 243.222656 C -58.070312 242.644531 -58.640625 242.066406 -59.207031 241.484375 C -60.933594 239.734375 -62.679688 238.003906 -64.417969 236.265625 L -65.792969 234.898438 L -66.527344 234.164062 C -72.101562 228.601562 -77.671875 223.039062 -83.242188 217.480469 C -86.464844 214.265625 -89.683594 211.050781 -92.90625 207.835938 C -95.722656 205.03125 -98.535156 202.222656 -101.347656 199.414062 C -102.832031 197.925781 -104.320312 196.441406 -105.8125 194.957031 C -107.210938 193.5625 -108.609375 192.167969 -110.003906 190.769531 C -110.515625 190.257812 -111.03125 189.746094 -111.546875 189.234375 C -112.246094 188.535156 -112.945312 187.835938 -113.640625 187.136719 L -114.269531 186.519531 C -114.75 186.035156 -115.207031 185.527344 -115.660156 185.019531 L -115.660156 184.183594 L -117.332031 184.183594 L -116.914062 185.4375 C -116.875 186.210938 -116.859375 186.988281 -116.859375 187.765625 L -116.855469 189.230469 L -116.855469 190.84375 L -116.851562 192.539062 C -116.847656 194.074219 -116.84375 195.613281 -116.84375 197.152344 L -116.84375 200.035156 C -116.839844 203.394531 -116.835938 206.753906 -116.835938 210.113281 C -116.835938 213.238281 -116.832031 216.359375 -116.828125 219.484375 C -116.820312 222.171875 -116.820312 224.855469 -116.820312 227.542969 C -116.820312 229.144531 -116.816406 230.746094 -116.8125 232.351562 C -116.808594 233.859375 -116.808594 235.371094 -116.8125 236.878906 C -116.8125 237.691406 -116.808594 238.503906 -116.804688 239.316406 C -116.832031 246.519531 -116.832031 246.519531 -118.445312 249.40625 C -119.78125 250.828125 -120.800781 251.796875 -122.613281 252.578125 C -123.445312 252.703125 -123.445312 252.703125 -124.441406 252.761719 L -125.792969 252.847656 C -128.976562 252.945312 -131.933594 252.75 -134.894531 251.507812 C -136.128906 250.761719 -137.078125 249.933594 -137.859375 248.699219 C -139.675781 244.167969 -139.214844 238.273438 -139.25 233.453125 L -139.273438 231.246094 C -139.296875 229.265625 -139.316406 227.289062 -139.332031 225.308594 C -139.351562 223.222656 -139.371094 221.136719 -139.394531 219.050781 C -139.433594 215.546875 -139.464844 212.042969 -139.496094 208.539062 C -139.542969 203.625 -139.59375 198.714844 -139.644531 193.800781 C -139.84375 174.300781 -139.84375 174.300781 -139.914062 164.949219 L -139.925781 163.375 C -139.933594 162.078125 -139.941406 160.785156 -139.945312 159.488281 L -139.953125 158.449219 C -139.957031 154.988281 -139.851562 151.367188 -138.527344 148.136719 C -137.59375 146.582031 -136.574219 145.914062 -135.050781 144.984375 C -131.691406 143.199219 -128.152344 143.503906 -124.441406 143.621094 L -123.082031 143.660156 C -118.945312 143.878906 -115.324219 145.152344 -111.835938 147.382812 C -110.457031 148.351562 -109.183594 149.402344 -107.90625 150.5 L -107.132812 151.167969 C -104.496094 153.460938 -102.015625 155.890625 -99.550781 158.363281 L -98.140625 159.773438 C -97.171875 160.742188 -96.203125 161.710938 -95.234375 162.683594 C -93.992188 163.929688 -92.746094 165.171875 -91.5 166.414062 C -90.535156 167.375 -89.574219 168.339844 -88.613281 169.304688 C -88.152344 169.761719 -87.691406 170.222656 -87.234375 170.679688 C -86.59375 171.316406 -85.960938 171.953125 -85.328125 172.59375 L -84.230469 173.6875 L -83.460938 174.566406 L -83.460938 175.402344 L -82.738281 175.714844 C -81.644531 176.320312 -80.890625 177.023438 -80.011719 177.910156 L -79.117188 178.800781 L -78.445312 179.582031 L -78.445312 180.417969 L -77.632812 180.757812 L -76.769531 181.257812 L -76.351562 182.511719 L -75.515625 182.511719 L -75.515625 183.347656 L -74.679688 183.347656 L -74.679688 184.183594 L -73.425781 184.601562 L -73.425781 185.4375 L -72.589844 185.4375 C -72.042969 185.992188 -72.042969 185.992188 -71.386719 186.796875 C -70 188.429688 -68.535156 189.960938 -67.023438 191.476562 L -66.355469 192.148438 C -65.191406 193.332031 -65.191406 193.332031 -63.808594 194.21875 L -63.808594 195.054688 L -62.972656 195.054688 C -62.378906 195.660156 -62.378906 195.660156 -61.683594 196.5 C -60.019531 198.453125 -58.234375 200.257812 -56.410156 202.058594 L -55.46875 203 C -54.890625 203.574219 -54.3125 204.148438 -53.730469 204.71875 C -52.90625 205.539062 -52.085938 206.359375 -51.261719 207.183594 L -51.265625 206.296875 C -51.285156 199.179688 -51.296875 192.0625 -51.308594 184.945312 C -51.3125 181.503906 -51.316406 178.0625 -51.328125 174.621094 C -51.335938 171.621094 -51.339844 168.621094 -51.34375 165.621094 C -51.34375 164.03125 -51.347656 162.445312 -51.351562 160.855469 C -51.355469 159.359375 -51.359375 157.863281 -51.359375 156.367188 C -51.359375 155.5625 -51.363281 154.753906 -51.367188 153.945312 C -51.359375 151.332031 -51.230469 149.042969 -50.425781 146.546875 C -49.585938 145.109375 -48.46875 144.128906 -47.082031 143.203125 C -44.386719 142.316406 -41.785156 142.3125 -39.003906 142.628906 M -428.570312 428.753906 L -426.738281 428.753906 C -425.46875 428.75 -424.199219 428.753906 -422.933594 428.753906 C -421.316406 428.757812 -419.703125 428.753906 -418.085938 428.753906 C -416.828125 428.75 -415.574219 428.75 -414.316406 428.753906 C -413.71875 428.753906 -413.125 428.753906 -412.527344 428.753906 C -406.367188 428.742188 -406.367188 428.742188 -403.355469 429.226562 C -402.285156 429.933594 -402.285156 429.933594 -401.683594 430.898438 C -401.449219 432.050781 -401.449219 432.050781 -401.683594 433.410156 C -402.269531 434.605469 -403.007812 435.667969 -403.777344 436.753906 L -404.523438 437.855469 C -406.84375 441.238281 -406.84375 441.238281 -407.957031 442.191406 L -408.792969 442.191406 L -409.113281 442.902344 C -409.703125 444 -410.40625 444.886719 -411.199219 445.847656 C -412.246094 447.136719 -413.273438 448.429688 -414.253906 449.769531 C -415.738281 451.765625 -417.394531 453.601562 -419.054688 455.453125 C -422.523438 459.359375 -425.785156 463.460938 -428.964844 467.601562 C -430.113281 469.058594 -431.308594 470.472656 -432.507812 471.886719 C -433.507812 473.066406 -433.507812 473.066406 -434.300781 474.390625 L -435.136719 474.390625 C -435.246094 474.625 -435.355469 474.863281 -435.464844 475.109375 C -437.148438 478.261719 -439.902344 480.941406 -442.210938 483.65625 C -444.253906 486.058594 -446.242188 488.507812 -448.140625 491.023438 L -448.9375 491.953125 L -449.773438 491.953125 L -450.125 492.691406 C -451.515625 495.359375 -453.636719 497.578125 -455.644531 499.789062 C -456.664062 500.964844 -457.570312 502.203125 -458.460938 503.480469 L -458.972656 504.078125 L -459.808594 504.078125 L -460.070312 504.96875 C -460.835938 506.570312 -461.859375 507.46875 -463.15625 508.679688 C -461.660156 511.980469 -458.867188 514.675781 -456.464844 517.34375 C -455.59375 518.332031 -454.773438 519.351562 -453.957031 520.386719 C -452.628906 522.066406 -451.234375 523.667969 -449.804688 525.257812 C -448.515625 526.71875 -447.300781 528.234375 -446.074219 529.746094 C -445.304688 530.683594 -444.515625 531.605469 -443.710938 532.515625 C -442.523438 533.863281 -441.355469 535.230469 -440.207031 536.617188 L -439.246094 537.773438 C -438.484375 538.785156 -438.484375 538.785156 -438.066406 540.039062 L -437.230469 540.039062 C -436.488281 540.917969 -435.773438 541.816406 -435.085938 542.734375 C -433.25 545.125 -431.316406 547.433594 -429.285156 549.660156 C -428.722656 550.273438 -428.167969 550.894531 -427.609375 551.515625 L -426.878906 552.324219 L -426.355469 553.003906 L -426.355469 553.839844 L -425.519531 553.839844 C -424.839844 554.65625 -424.1875 555.492188 -423.558594 556.347656 C -422.152344 558.222656 -420.71875 560.03125 -419.15625 561.777344 C -417.917969 563.179688 -416.753906 564.644531 -415.578125 566.097656 C -414.496094 567.402344 -413.375 568.664062 -412.230469 569.914062 L -411.71875 570.566406 L -411.71875 571.402344 L -410.882812 571.402344 C -410.328125 572.109375 -409.796875 572.832031 -409.289062 573.574219 C -408.105469 575.242188 -406.914062 576.664062 -405.449219 578.09375 C -404.589844 579.136719 -403.742188 580.195312 -402.914062 581.261719 C -402.253906 582.089844 -401.566406 582.859375 -400.847656 583.632812 C -400.011719 584.785156 -400.011719 584.785156 -399.804688 586.144531 L -400.011719 587.292969 C -401.410156 588.226562 -402.042969 588.28125 -403.691406 588.386719 C -406.683594 588.574219 -409.671875 588.609375 -412.667969 588.601562 L -414.34375 588.605469 C -415.503906 588.605469 -416.660156 588.605469 -417.820312 588.601562 C -419.289062 588.601562 -420.753906 588.601562 -422.222656 588.605469 C -438.261719 588.625 -438.261719 588.625 -440.515625 587.566406 C -441.449219 586.976562 -442.253906 586.347656 -443.082031 585.621094 L -444.363281 584.679688 L -445.171875 583.949219 L -445.171875 583.113281 L -446.011719 583.113281 C -446.671875 582.3125 -447.308594 581.492188 -447.917969 580.65625 C -449.804688 578.140625 -451.824219 575.804688 -453.957031 573.492188 C -454.523438 572.871094 -455.089844 572.242188 -455.652344 571.613281 L -456.375 570.816406 L -456.882812 570.148438 L -456.882812 569.3125 L -457.71875 569.3125 C -458.265625 568.695312 -458.265625 568.695312 -458.921875 567.796875 C -460.523438 565.660156 -462.257812 563.65625 -464.027344 561.660156 C -464.585938 561.015625 -465.128906 560.355469 -465.664062 559.695312 L -465.664062 558.859375 L -466.5 558.859375 C -467.066406 558.234375 -467.601562 557.585938 -468.121094 556.925781 C -469.671875 554.984375 -471.253906 553.082031 -472.878906 551.199219 C -473.484375 550.496094 -474.09375 549.789062 -474.699219 549.082031 C -475.097656 548.621094 -475.496094 548.160156 -475.898438 547.699219 C -476.402344 547.113281 -476.890625 546.503906 -477.371094 545.894531 L -477.371094 545.058594 L -478.207031 545.058594 C -478.949219 544.179688 -479.664062 543.285156 -480.351562 542.367188 C -481.945312 540.292969 -483.574219 538.296875 -485.332031 536.363281 C -486.601562 534.9375 -487.789062 533.445312 -488.992188 531.960938 C -489.816406 530.964844 -490.667969 529.992188 -491.539062 529.039062 C -493.15625 527.242188 -494.621094 525.351562 -496.097656 523.441406 C -497.355469 521.832031 -498.664062 520.3125 -500.058594 518.820312 C -501.914062 516.820312 -503.476562 514.71875 -504.972656 512.441406 L -505.808594 511.1875 C -506.117188 509.75 -506.0625 508.449219 -505.808594 507.007812 C -504.488281 504.007812 -502.597656 501.441406 -500.371094 499.0625 C -496.390625 494.628906 -496.390625 494.628906 -492.84375 489.859375 L -492.007812 489.859375 C -491.847656 489.507812 -491.847656 489.507812 -491.6875 489.148438 C -491.101562 488.058594 -490.410156 487.183594 -489.628906 486.230469 C -488.535156 484.878906 -487.449219 483.527344 -486.390625 482.152344 C -485.320312 480.777344 -484.230469 479.417969 -483.121094 478.074219 C -481.640625 476.273438 -480.191406 474.449219 -478.757812 472.613281 C -477.425781 470.910156 -476.085938 469.226562 -474.664062 467.597656 C -472.3125 464.871094 -470.066406 462.054688 -467.925781 459.160156 L -467.335938 458.5 L -466.5 458.5 L -466.175781 457.78125 C -465.605469 456.714844 -464.9375 455.855469 -464.175781 454.917969 L -463.269531 453.804688 L -462.320312 452.644531 L -461.378906 451.496094 C -460.753906 450.730469 -460.125 449.964844 -459.496094 449.195312 C -458.550781 448.039062 -457.609375 446.882812 -456.671875 445.71875 L -455.851562 444.699219 C -455.195312 443.894531 -455.195312 443.894531 -454.792969 443.027344 L -453.957031 443.027344 L -453.613281 442.320312 C -453.074219 441.265625 -452.523438 440.25 -451.863281 439.261719 L -451.027344 439.261719 L -450.71875 438.566406 C -449.066406 435.507812 -446.398438 432.441406 -443.5 430.480469 C -441.722656 429.476562 -440.355469 429.050781 -438.320312 428.941406 C -437.804688 428.917969 -437.289062 428.890625 -436.761719 428.863281 C -434.027344 428.773438 -431.300781 428.75 -428.570312 428.753906 M -326.050781 428.757812 L -325.175781 428.761719 C -323.28125 428.769531 -321.390625 428.785156 -319.496094 428.800781 C -318.433594 428.808594 -317.371094 428.8125 -316.308594 428.820312 C -314.46875 428.828125 -312.628906 428.847656 -310.792969 428.875 C -310.082031 428.882812 -309.371094 428.886719 -308.660156 428.890625 C -302.375 428.914062 -302.375 428.914062 -299.679688 430.222656 C -298.175781 431.101562 -296.988281 432.054688 -295.890625 433.410156 L -295.890625 434.246094 L -295.054688 434.246094 L -295.054688 435.082031 L -294.214844 435.082031 C -293.675781 435.691406 -293.675781 435.691406 -293.117188 436.492188 L -292.554688 437.285156 L -292.125 438.007812 L -292.125 438.84375 L -291.289062 438.84375 C -290.707031 439.484375 -290.152344 440.152344 -289.617188 440.832031 L -288.605469 442.09375 L -288.074219 442.761719 C -287.160156 443.902344 -286.21875 445.019531 -285.277344 446.136719 C -282.808594 449.082031 -282.808594 449.082031 -282.089844 450.136719 L -282.089844 450.972656 L -281.253906 450.972656 C -280.59375 451.769531 -279.957031 452.589844 -279.34375 453.429688 C -277.738281 455.574219 -276.050781 457.585938 -274.234375 459.558594 C -272.597656 461.375 -271.074219 463.285156 -269.542969 465.1875 L -268.683594 466.261719 C -267.578125 467.640625 -266.480469 469.019531 -265.378906 470.398438 C -262.625 473.851562 -259.832031 477.273438 -257 480.660156 C -254.179688 484.042969 -251.394531 487.453125 -248.648438 490.894531 C -247.125 492.792969 -245.582031 494.671875 -244.035156 496.550781 C -243.085938 497.707031 -242.140625 498.867188 -241.195312 500.027344 C -240.585938 500.769531 -239.964844 501.507812 -239.335938 502.238281 C -237.777344 504.085938 -236.398438 505.804688 -235.761719 508.171875 C -235.628906 509.566406 -235.894531 510.601562 -236.421875 511.890625 C -237.898438 514.714844 -239.878906 517.148438 -242.003906 519.507812 C -242.875 520.492188 -243.703125 521.507812 -244.53125 522.53125 C -246.019531 524.359375 -247.542969 526.15625 -249.082031 527.941406 C -250.78125 529.910156 -252.4375 531.914062 -254.046875 533.953125 C -255.078125 535.234375 -256.140625 536.488281 -257.207031 537.742188 C -260.609375 541.695312 -260.609375 541.695312 -263.691406 545.894531 L -264.527344 545.894531 L -264.8125 546.574219 C -265.542969 547.890625 -266.496094 548.972656 -267.480469 550.101562 C -267.894531 550.585938 -268.308594 551.070312 -268.722656 551.550781 L -269.351562 552.285156 C -270.269531 553.371094 -271.179688 554.464844 -272.082031 555.566406 L -272.984375 556.667969 C -273.773438 557.632812 -273.773438 557.632812 -274.5625 558.859375 L -275.398438 558.859375 L -275.632812 559.722656 C -276.335938 561.152344 -277.191406 561.949219 -278.332031 563.035156 C -279.542969 564.261719 -280.566406 565.613281 -281.628906 566.964844 C -282.519531 568.074219 -283.457031 569.125 -284.417969 570.175781 C -285.855469 571.75 -287.175781 573.378906 -288.46875 575.074219 C -289.75 576.703125 -291.15625 578.226562 -292.542969 579.765625 C -294.542969 582.023438 -294.542969 582.023438 -296.4375 584.367188 L -297.144531 585.203125 L -297.980469 585.203125 L -297.980469 586.039062 C -298.566406 586.5625 -298.566406 586.5625 -299.390625 587.109375 L -300.183594 587.660156 C -303.933594 589.203125 -308.644531 588.617188 -312.644531 588.617188 L -314.707031 588.621094 C -316.144531 588.625 -317.578125 588.625 -319.015625 588.625 C -320.847656 588.625 -322.679688 588.632812 -324.507812 588.636719 C -325.929688 588.640625 -327.347656 588.644531 -328.765625 588.644531 C -329.441406 588.644531 -330.117188 588.644531 -330.789062 588.648438 C -337.835938 588.679688 -337.835938 588.679688 -340.632812 587.710938 C -341.171875 586.929688 -341.171875 586.929688 -341.46875 586.039062 C -340.746094 583.789062 -339.589844 582.027344 -338.125 580.183594 L -337.289062 580.183594 L -336.976562 579.261719 C -336.390625 577.960938 -335.707031 577.167969 -334.726562 576.132812 C -333.421875 574.726562 -332.175781 573.304688 -330.988281 571.792969 C -329.949219 570.472656 -328.878906 569.199219 -327.746094 567.953125 C -326.128906 566.15625 -324.644531 564.269531 -323.160156 562.359375 C -320.773438 559.296875 -318.292969 556.308594 -315.726562 553.394531 C -313.933594 551.363281 -312.230469 549.257812 -310.523438 547.148438 L -309.554688 545.957031 C -308.015625 544.136719 -308.015625 544.136719 -306.761719 542.132812 L -305.925781 542.132812 L -305.601562 541.402344 C -305.039062 540.367188 -304.398438 539.625 -303.597656 538.761719 C -301.167969 536.078125 -298.800781 533.328125 -296.75 530.34375 L -295.890625 529.167969 L -295.054688 529.167969 L -294.722656 528.445312 C -292.933594 525.085938 -289.957031 522.246094 -287.46875 519.386719 C -284.234375 515.667969 -281.179688 511.863281 -278.328125 507.84375 L -279.582031 507.425781 L -279.582031 506.585938 L -280.417969 506.585938 C -280.957031 505.976562 -280.957031 505.976562 -281.515625 505.175781 L -282.082031 504.382812 L -282.507812 503.660156 L -282.507812 502.824219 L -283.34375 502.824219 C -284.066406 501.964844 -284.761719 501.082031 -285.433594 500.183594 C -287.535156 497.441406 -289.78125 494.90625 -292.125 492.371094 C -292.855469 491.558594 -293.550781 490.722656 -294.214844 489.859375 L -294.214844 489.023438 L -295.054688 489.023438 C -295.742188 488.199219 -296.402344 487.355469 -297.039062 486.488281 C -297.417969 485.984375 -297.796875 485.484375 -298.179688 484.980469 L -298.730469 484.246094 C -299.683594 483.003906 -300.703125 481.828125 -301.742188 480.660156 C -303.5 478.6875 -305.175781 476.683594 -306.785156 474.589844 C -308.058594 472.96875 -309.386719 471.394531 -310.710938 469.816406 C -312.054688 468.199219 -313.390625 466.578125 -314.714844 464.945312 C -315.40625 464.105469 -316.109375 463.269531 -316.824219 462.445312 L -317.632812 461.425781 L -317.632812 460.589844 L -318.46875 460.589844 C -319.007812 459.980469 -319.007812 459.980469 -319.566406 459.179688 L -320.132812 458.382812 L -320.5625 457.664062 L -320.5625 456.824219 L -321.398438 456.824219 C -322.078125 456.011719 -322.730469 455.171875 -323.355469 454.316406 C -324.765625 452.441406 -326.203125 450.632812 -327.765625 448.886719 C -329.320312 447.117188 -330.785156 445.269531 -332.269531 443.445312 L -334.203125 441.09375 L -335.136719 439.941406 C -335.710938 439.238281 -336.296875 438.539062 -336.890625 437.851562 C -338.152344 436.34375 -339.128906 434.996094 -339.691406 433.09375 C -339.832031 432.160156 -339.832031 432.160156 -339.796875 431.316406 L -339.144531 430.0625 C -335.546875 427.96875 -330.113281 428.742188 -326.050781 428.757812 M 241.453125 83.40625 C 245.394531 85.011719 249.074219 87.320312 251.90625 90.515625 L 251.90625 91.351562 L 252.742188 91.351562 C 253.421875 92.34375 253.421875 92.34375 253.996094 93.441406 L 253.996094 94.277344 L 254.832031 94.277344 C 255.308594 95.253906 255.777344 96.226562 256.246094 97.203125 L 256.644531 98.027344 C 258.332031 101.574219 258.738281 104.730469 258.726562 108.625 L 258.746094 109.855469 C 258.75 114.199219 257.605469 118.402344 255.667969 122.292969 C 254.757812 123.742188 253.761719 125.105469 252.742188 126.476562 C 252.382812 127.015625 252.027344 127.558594 251.671875 128.097656 C 250.570312 129.507812 249.675781 130.167969 248.140625 131.078125 L 245.867188 132.566406 C 242.660156 134.59375 239.53125 135.90625 235.707031 136.175781 C 234.484375 136.207031 233.265625 136.207031 232.042969 136.199219 L 230.800781 136.207031 C 225.332031 136.195312 221.398438 134.550781 216.722656 131.835938 C 212.835938 129.375 209.960938 125.78125 207.582031 121.875 C 206.914062 120.511719 206.378906 119.136719 205.90625 117.695312 L 205.589844 116.804688 C 204.667969 114.042969 204.425781 111.503906 204.445312 108.601562 L 204.453125 107.265625 C 204.558594 102.519531 205.824219 99.03125 208.285156 94.957031 C 209.023438 93.824219 209.023438 93.824219 209.671875 93.023438 L 210.507812 93.023438 L 210.742188 92.136719 C 211.9375 89.742188 214.25 88.40625 216.425781 86.96875 L 217.199219 86.464844 C 217.441406 86.304688 217.683594 86.144531 217.933594 85.980469 C 224.816406 81.59375 233.746094 80.800781 241.453125 83.40625 " fill-opacity="1" fill-rule="nonzero"/></g></svg>